<?xml version="1.0" standalone="no"?>
<!DOCTYPE svg PUBLIC "-//W3C//DTD SVG 20010904//EN"
 "http://www.w3.org/TR/2001/REC-SVG-20010904/DTD/svg10.dtd">
<svg version="1.0" xmlns="http://www.w3.org/2000/svg"
 width="1280.000000pt" height="1280.000000pt" viewBox="0 0 1280.000000 1280.000000"
 preserveAspectRatio="xMidYMid meet">

<g transform="translate(0.000000,1280.000000) scale(0.100000,-0.100000)"
fill="#000000" stroke="none">
<path d="M0 6400 l0 -6400 6400 0 6400 0 0 6400 0 6400 -6400 0 -6400 0 0
-6400z m1609 5779 c-7 -4 -20 -2 -31 4 -14 9 -23 9 -38 -1 -21 -13 -27 -3 -9
15 7 7 23 7 51 0 25 -6 35 -13 27 -18z m61 -8 c0 -10 -30 -24 -37 -17 -3 3 -2
9 2 15 8 13 35 15 35 2z m68 -6 c-2 -1 -15 -5 -30 -9 -20 -4 -28 -3 -28 7 0 9
9 12 30 9 17 -2 30 -5 28 -7z m10127 -9 c49 -22 101 -70 125 -116 71 -139 34
-321 -127 -630 -166 -316 -309 -534 -701 -1062 -73 -98 -159 -219 -192 -268
-32 -50 -68 -102 -79 -116 -12 -15 -21 -30 -21 -33 0 -3 172 -6 383 -5 398 1
425 -1 441 -41 3 -9 6 -149 6 -310 0 -270 -1 -295 -18 -316 -36 -44 -82 -49
-468 -49 -369 0 -459 7 -481 37 -10 13 -13 91 -13 312 0 263 2 296 17 313 16
18 16 18 0 12 -31 -11 -40 -45 -45 -163 -5 -127 -29 -205 -111 -372 -68 -136
-187 -299 -209 -285 -14 9 22 231 39 242 5 3 9 12 9 20 0 8 10 36 21 62 43 94
88 211 95 248 6 33 5 36 -11 30 -13 -5 -16 -2 -11 9 6 16 -16 249 -35 370 -7
39 -15 122 -19 185 -4 63 -15 142 -24 175 -18 61 -24 84 -25 98 -1 5 -6 5 -12
1 -8 -4 -9 0 -4 15 7 23 -29 111 -46 111 -5 0 -9 6 -9 13 0 6 -16 29 -35 50
-18 20 -31 37 -28 37 4 0 -13 18 -37 40 -24 22 -47 40 -50 40 -4 0 -13 7 -20
15 -7 8 -16 12 -21 9 -5 -3 -9 2 -9 10 0 9 -4 16 -10 16 -5 0 -10 -4 -10 -10
0 -5 -5 -10 -11 -10 -13 0 -40 26 -33 33 6 5 -66 32 -78 29 -4 -1 -5 5 -2 12
4 10 -6 18 -32 25 -20 6 -40 8 -44 6 -4 -3 -34 2 -66 11 -33 8 -77 17 -99 19
-22 2 -77 6 -122 10 -45 3 -96 10 -113 15 -17 5 -52 7 -78 4 -42 -5 -94 1
-201 22 -26 5 -32 4 -26 -6 6 -10 4 -11 -11 -6 -10 5 -52 11 -91 13 -40 3 -70
9 -67 14 3 5 -50 9 -118 9 -68 0 -141 2 -163 4 -24 3 -42 1 -46 -6 -6 -9 -11
-9 -21 0 -7 6 -38 14 -68 18 -30 4 -60 11 -67 16 -7 5 -42 6 -83 2 -52 -5 -74
-3 -79 5 -5 7 -32 13 -62 13 -30 1 -59 7 -66 14 -7 6 -38 15 -70 19 -38 5 -62
13 -70 25 -8 11 -25 18 -41 18 -45 -1 -92 13 -92 28 0 8 -8 14 -19 14 -10 0
-24 7 -31 15 -7 8 -23 15 -37 15 -13 0 -26 7 -29 15 -4 8 -13 15 -21 15 -8 0
-11 5 -7 11 11 19 -17 59 -43 59 -14 0 -23 6 -23 15 0 8 -7 15 -16 15 -11 0
-14 6 -9 21 4 13 3 19 -2 16 -6 -4 -23 12 -39 33 -16 22 -32 40 -36 40 -5 0
-8 7 -8 15 0 8 -6 15 -14 15 -8 0 -21 8 -28 18 -20 27 -69 55 -101 58 -80 6
-19 21 203 49 74 9 212 27 305 40 94 13 253 35 355 49 566 77 1222 169 1475
206 156 23 482 68 545 75 25 3 106 14 180 25 209 31 691 101 835 121 165 23
370 21 430 -5z m-10825 -21 c7 -8 16 -13 20 -10 4 2 12 -6 18 -19 10 -22 8
-24 -25 -31 -19 -3 -38 -4 -41 -1 -3 3 0 6 7 6 7 0 9 5 6 10 -3 6 -15 10 -26
10 -10 0 -19 4 -19 9 0 5 -8 12 -17 14 -10 3 0 4 22 2 22 -1 32 0 22 2 -9 2
-15 9 -12 14 9 14 31 11 45 -6z m865 -5 c4 -6 12 -7 18 -4 9 5 9 4 0 -6 -9
-10 -16 -9 -34 4 -18 12 -20 16 -7 16 9 0 20 -5 23 -10z m-937 -28 l33 -18
-22 -20 c-12 -10 -19 -13 -15 -6 4 7 2 12 -6 13 -10 0 -10 2 0 6 21 8 4 21
-22 16 -14 -3 -28 -14 -31 -24 -4 -10 -11 -19 -16 -19 -24 0 -57 -50 -88 -135
-12 -35 -1 -143 17 -154 13 -8 5 -51 -9 -51 -13 0 -11 -148 1 -152 6 -2 12
-13 13 -26 0 -12 6 -21 12 -20 18 2 45 -14 45 -28 0 -15 9 -17 53 -14 19 1 27
-3 27 -14 0 -9 -6 -16 -14 -16 -10 0 -15 -15 -18 -47 -3 -27 -8 -56 -13 -67
-13 -29 17 -15 32 15 10 18 13 20 13 7 0 -10 5 -18 10 -18 6 0 10 -7 10 -15 0
-19 56 -21 63 -2 3 8 10 7 23 -7 14 -13 15 -20 7 -23 -8 -3 -13 -22 -13 -44 0
-21 -4 -39 -10 -39 -5 0 -10 -9 -10 -20 0 -11 5 -20 10 -20 6 0 10 -7 10 -16
0 -8 7 -22 15 -30 8 -9 15 -29 15 -45 0 -24 -4 -29 -25 -29 -21 0 -25 -5 -25
-30 0 -37 -15 -40 -18 -3 -2 24 -21 48 -30 38 -3 -2 4 -24 14 -48 13 -33 23
-43 35 -40 14 4 18 -3 21 -34 2 -31 7 -39 26 -41 27 -4 29 -19 3 -24 -15 -2
-17 -7 -10 -27 8 -20 11 -22 26 -10 15 13 16 11 10 -19 -8 -40 7 -74 28 -66 8
4 23 3 33 -1 16 -7 15 -8 -3 -15 -17 -6 -15 -10 23 -29 24 -12 45 -28 49 -36
3 -8 11 -15 19 -15 8 0 14 -4 14 -10 0 -5 -5 -10 -11 -10 -6 0 -9 -14 -7 -32
2 -18 8 -32 13 -30 6 2 9 10 7 18 -2 10 8 14 38 14 l40 0 0 80 0 80 40 0 c22
0 40 5 40 10 0 6 5 10 10 10 6 0 10 -7 10 -15 0 -10 10 -15 30 -15 17 0 30 -4
30 -10 0 -8 -19 -14 -41 -12 -3 1 -3 -12 -1 -29 3 -17 10 -29 19 -29 10 0 13
6 9 16 -3 8 -2 12 4 9 5 -3 18 4 28 16 17 18 23 19 41 7 12 -7 21 -16 21 -20
0 -5 5 -8 12 -8 6 0 8 3 5 7 -10 9 13 33 32 32 10 0 11 -2 4 -6 -7 -2 -13 -11
-13 -18 0 -8 -9 -17 -20 -20 -11 -3 -20 -11 -20 -17 0 -7 -4 -7 -14 1 -15 12
-67 11 -60 -1 3 -5 -2 -11 -10 -14 -18 -7 -22 -39 -6 -49 6 -3 10 4 11 17 0
20 3 18 17 -12 19 -40 32 -52 49 -45 6 2 2 -12 -9 -31 -22 -37 -38 -41 -18 -4
6 12 9 24 7 27 -9 8 -42 -32 -40 -47 2 -8 -2 -22 -7 -30 -9 -13 -11 -13 -19 0
-17 25 -24 3 -13 -40 5 -22 8 -40 7 -40 -2 0 -14 20 -26 45 -18 35 -28 45 -47
45 -21 0 -23 -2 -12 -15 7 -9 19 -14 27 -11 10 4 13 -6 13 -39 0 -25 5 -53 11
-63 9 -14 7 -27 -12 -63 -13 -24 -24 -46 -24 -49 -1 -3 -7 -18 -14 -35 -30
-72 -50 -144 -56 -201 -7 -58 -6 -61 16 -67 13 -4 103 -7 200 -7 132 0 187 -4
219 -15 109 -39 235 -195 299 -371 28 -78 36 -111 46 -208 3 -28 7 -51 8 -52
3 -3 253 -103 297 -119 38 -14 44 -23 31 -44 -11 -17 -38 -9 -205 61 -84 35
-122 46 -129 39 -16 -16 -27 -13 -27 5 0 9 -6 14 -13 11 -16 -6 -19 25 -3 35
6 4 -8 8 -31 8 -24 0 -43 4 -43 8 0 10 -60 32 -88 32 -12 0 -22 6 -22 13 0 8
-4 7 -10 -3 -8 -13 -10 -12 -12 5 -1 11 -4 -60 -8 -157 -3 -98 -10 -181 -15
-185 -6 -5 -229 -7 -497 -5 l-488 2 0 298 c0 331 -3 368 -31 375 -22 6 -26
-11 -4 -19 9 -4 15 -19 15 -37 0 -29 -1 -30 -15 -11 -14 18 -14 17 -15 -13 0
-22 -5 -33 -15 -33 -10 0 -14 9 -12 29 1 16 5 27 10 24 4 -2 7 5 7 16 0 18 -3
19 -32 9 -18 -6 -38 -19 -45 -27 -6 -9 -15 -13 -19 -8 -4 4 -2 7 4 7 9 0 9 5
0 20 -11 17 -10 22 2 30 11 7 12 10 2 10 -8 0 -16 -9 -19 -20 -3 -11 -12 -19
-21 -18 -8 2 -17 -3 -20 -11 -2 -8 0 -11 5 -8 6 4 8 -4 4 -21 -5 -25 -6 -25
-9 -4 -5 35 -20 26 -27 -18 -4 -22 -10 -40 -14 -40 -12 0 -34 -105 -42 -200
l-7 -85 3 105 c3 124 32 222 97 334 48 83 142 180 213 221 43 26 64 31 179 40
l130 10 -31 35 c-63 73 -412 593 -531 791 -73 122 -134 240 -216 424 -43 94
-82 214 -96 292 -16 91 -8 241 16 308 27 72 114 157 206 200 73 34 339 124
368 124 8 0 30 -8 48 -17z m1012 8 c0 -5 -4 -10 -10 -10 -5 0 -10 5 -10 10 0
6 5 10 10 10 6 0 10 -4 10 -10z m-250 -15 c-7 -8 -16 -12 -21 -9 -13 8 -1 24
18 24 13 0 13 -3 3 -15z m80 3 c0 -11 -22 -10 -40 2 -11 8 -9 9 13 8 15 -1 27
-6 27 -10z m252 6 c21 -4 35 -10 33 -14 -3 -5 12 -8 33 -8 56 0 224 -34 215
-43 -5 -5 -26 -4 -48 2 -22 6 -61 8 -89 4 -46 -6 -48 -5 -35 11 12 15 12 16
-6 11 -54 -17 -74 -16 -80 4 -4 11 -16 19 -28 20 -27 1 -69 17 -47 18 8 1 32
-2 52 -5z m-385 -20 c-3 -3 -12 -4 -19 -1 -8 3 -5 6 6 6 11 1 17 -2 13 -5z
m-77 -14 c0 -13 -40 -13 -60 0 -11 7 -5 10 23 10 20 0 37 -4 37 -10z m3687
-25 c50 -21 72 -42 94 -90 46 -99 -3 -211 -107 -245 -19 -7 -46 -9 -59 -6 -31
8 -95 63 -95 82 0 8 21 37 47 65 60 64 51 79 -38 60 -38 -7 -65 -9 -71 -3 -14
14 35 115 63 129 56 27 113 30 166 8z m-3040 -16 c-14 -8 -22 -8 -30 0 -8 8
-3 11 19 11 25 -1 27 -2 11 -11z m183 1 c24 -8 24 -8 -5 -9 -16 0 -37 4 -45 9
-12 8 -11 10 5 9 11 -1 31 -5 45 -9z m-75 -20 c-26 -11 -45 -12 -45 -2 0 4 15
8 33 9 26 1 28 0 12 -7z m142 4 c-3 -3 -12 -4 -19 -1 -8 3 -5 6 6 6 11 1 17
-2 13 -5z m-249 -11 c-10 -2 -26 -2 -35 0 -10 3 -2 5 17 5 19 0 27 -2 18 -5z
m190 0 c-10 -2 -26 -2 -35 0 -10 3 -2 5 17 5 19 0 27 -2 18 -5z m332 -39 c47
-8 153 -29 235 -46 186 -38 275 -55 390 -73 49 -8 148 -26 220 -41 71 -14 173
-29 225 -33 l95 -6 -145 -24 c-80 -13 -192 -36 -250 -51 -58 -15 -143 -37
-190 -49 -47 -12 -93 -26 -102 -31 -11 -6 -19 -6 -23 0 -10 16 -25 12 -19 -5
5 -11 -1 -15 -17 -15 -19 0 -21 2 -9 10 13 8 12 10 -2 10 -31 0 -33 -1 -30
-14 1 -8 -21 -23 -55 -36 -32 -12 -73 -29 -91 -37 -54 -24 -122 -42 -122 -32
0 5 -4 9 -10 9 -5 0 -10 -7 -10 -15 0 -19 -54 -47 -76 -38 -12 4 -15 3 -10 -5
4 -7 -3 -17 -20 -24 -22 -10 -28 -10 -32 0 -6 18 -19 14 -25 -8 -3 -11 -13
-23 -24 -27 -10 -3 -29 -14 -43 -23 -35 -24 -75 -36 -65 -20 5 9 4 11 -3 6 -7
-4 -12 -13 -12 -19 0 -7 -15 -19 -33 -28 -31 -15 -33 -15 -33 1 0 11 6 15 18
12 20 -5 25 14 6 21 -7 3 -3 6 9 6 13 1 28 10 35 21 7 11 20 20 30 20 9 0 20
5 23 10 4 7 11 7 18 2 8 -6 23 -5 41 3 19 8 25 15 17 19 -7 4 -18 2 -26 -4
-11 -9 -15 -9 -15 -1 0 6 6 11 13 12 6 0 -6 6 -28 14 -48 15 -36 18 20 5 47
-11 79 -4 71 16 -3 8 0 14 5 14 7 0 9 -10 6 -22 l-6 -23 17 21 c9 12 22 30 28
40 10 18 12 18 28 1 10 -9 27 -17 39 -16 20 1 20 2 -3 9 -19 5 -21 9 -10 14
11 5 14 19 12 56 -4 48 -3 50 22 50 18 0 26 -5 26 -17 1 -27 36 -88 44 -75 3
6 2 13 -3 17 -6 3 -8 12 -4 20 3 8 1 15 -4 15 -5 0 -9 10 -10 23 -2 19 -1 20
8 5 19 -34 25 -17 23 61 -2 62 0 80 12 85 7 3 14 14 14 24 0 14 -12 21 -51 30
-28 7 -59 12 -70 12 -10 0 -19 5 -19 10 0 7 -18 8 -50 4 -42 -6 -50 -4 -50 10
0 9 -6 16 -14 16 -8 0 -16 6 -19 14 -3 8 -15 12 -31 9 -19 -4 -28 0 -33 13
-13 36 -43 45 -43 14 0 -11 -4 -20 -10 -20 -5 0 -10 -25 -10 -55 0 -47 -3 -55
-19 -55 -15 0 -20 9 -23 48 -2 26 0 49 4 50 5 2 6 7 3 12 -3 4 3 6 14 3 29 -8
34 51 6 77 -12 11 -25 17 -29 13 -4 -4 -4 0 0 10 6 16 17 21 37 18 4 0 7 3 7
7 0 5 28 3 63 -5 34 -7 100 -20 147 -29z m4580 23 c0 -2 -35 -40 -78 -83 -108
-110 -203 -260 -352 -554 -59 -117 -81 -166 -210 -451 -47 -105 -133 -237
-201 -310 -17 -19 -43 -49 -57 -66 -27 -36 -48 -42 -55 -15 -4 13 -5 11 -6 -5
0 -13 -6 -23 -13 -23 -6 0 -9 -2 -6 -6 3 -3 -2 -22 -12 -42 -13 -27 -15 -41
-8 -50 6 -7 7 -16 3 -20 -4 -4 -10 -1 -12 6 -3 8 -31 11 -96 10 l-92 -2 80 -6
c51 -4 -3 -7 -150 -7 -126 0 -216 3 -200 7 l30 8 -30 2 c-16 1 -90 1 -164 0
-88 -1 -131 2 -127 9 4 6 -18 11 -61 13 -61 3 -69 6 -80 28 -11 22 -13 23 -14
5 -1 -11 -1 -24 0 -28 1 -5 -13 -5 -31 -2 -77 15 -126 17 -132 6 -4 -6 -25
-11 -47 -11 -24 0 -38 -4 -34 -10 11 -18 -269 -19 -303 -1 -20 10 -52 -3 -39
-16 5 -4 12 -1 17 7 7 10 10 11 10 3 0 -7 12 -13 26 -13 14 0 22 -4 19 -10 -3
-5 -25 -8 -48 -6 -23 2 -50 4 -59 5 -9 1 -19 10 -23 20 -4 12 -12 18 -21 14
-19 -7 -18 14 2 25 12 6 8 9 -15 9 -33 0 -54 13 -33 20 14 5 16 33 2 33 -5 0
-10 9 -10 20 0 11 -4 20 -10 20 -14 0 -12 -33 3 -49 10 -11 8 -13 -11 -8 -12
3 -20 1 -16 -4 3 -5 1 -9 -5 -9 -19 0 -21 19 -4 29 15 8 16 12 4 23 -12 11
-13 11 -6 -1 5 -9 4 -12 -3 -7 -7 4 -12 22 -12 39 0 21 -3 27 -9 19 -6 -10
-11 -10 -21 3 -11 13 -11 21 -2 36 7 10 12 27 12 36 -1 17 -1 17 -11 1 -5 -10
-17 -18 -25 -18 -19 0 -10 -39 14 -58 14 -11 15 -14 3 -21 -8 -5 -20 -7 -28
-4 -28 11 -10 -14 42 -55 32 -26 59 -41 66 -36 7 4 9 3 5 -4 -3 -6 -1 -16 6
-21 7 -6 31 -27 53 -46 22 -19 85 -70 140 -112 55 -42 125 -98 155 -124 30
-25 80 -64 110 -85 31 -22 96 -73 145 -115 50 -43 142 -117 205 -166 l115 -90
70 42 c116 69 370 228 375 235 3 4 37 28 75 52 39 25 102 71 140 102 39 31 78
56 89 56 10 0 45 -21 78 -47 33 -27 83 -66 112 -89 87 -70 256 -169 513 -301
187 -96 250 -124 262 -116 23 14 128 18 351 16 208 -3 240 -6 240 -26 -1 -33
-13 -35 -180 -26 -91 5 -187 11 -215 15 -27 3 -83 8 -123 11 -64 5 -71 3 -66
-11 3 -9 11 -16 18 -16 15 0 312 -119 396 -158 36 -17 121 -54 190 -83 183
-76 288 -127 351 -170 52 -35 89 -76 89 -98 0 -18 -33 -21 -51 -5 -17 15 -18
15 -16 -5 1 -13 6 -20 14 -17 20 8 15 -9 -9 -30 -20 -18 -21 -18 -15 -1 4 11
3 16 -3 12 -6 -3 -10 -13 -10 -22 0 -9 -35 -50 -77 -91 -60 -57 -83 -72 -100
-69 -23 4 -31 -7 -13 -18 13 -8 -116 -133 -271 -262 -25 -21 -70 -58 -99 -83
-30 -25 -74 -61 -99 -80 -25 -19 -52 -40 -59 -47 -8 -7 -30 -26 -50 -41 -21
-15 -39 -29 -42 -32 -3 -4 -23 -19 -45 -36 -22 -16 -44 -33 -50 -37 -5 -4 -41
-30 -80 -58 -38 -28 -81 -59 -95 -70 -14 -11 -50 -34 -80 -50 -67 -36 -115
-66 -160 -99 -34 -25 -107 -67 -165 -96 -16 -8 -70 -37 -120 -64 -105 -58
-195 -101 -274 -132 l-56 -22 0 -983 c0 -781 -3 -982 -12 -978 -32 12 -150 96
-273 196 -44 35 -219 168 -308 234 -37 27 -89 68 -117 90 -27 23 -84 65 -125
94 -41 28 -120 84 -175 123 -55 39 -115 78 -133 86 -29 14 -33 14 -45 0 -6 -8
-48 -39 -92 -68 -44 -30 -114 -79 -155 -110 -41 -32 -85 -63 -97 -69 -30 -15
-71 -4 -109 29 -17 15 -71 51 -120 81 -101 61 -156 97 -164 108 -3 4 -22 17
-43 30 -21 13 -36 28 -35 33 2 5 26 21 53 36 28 15 52 29 55 32 36 36 237 150
265 150 24 0 -16 -33 -144 -121 l-150 -101 50 -35 c27 -18 55 -31 61 -27 6 4
9 3 6 -2 -6 -9 128 -103 240 -168 8 -5 22 0 35 12 42 38 238 161 292 183 30
12 55 26 55 31 0 4 -14 15 -30 23 -17 9 -63 37 -103 62 -114 72 -111 70 -347
218 -74 46 -144 91 -156 99 -18 12 -22 29 -27 112 -4 53 -8 98 -9 99 -12 11
-345 -78 -748 -200 -85 -26 -173 -51 -195 -56 -22 -6 -110 -32 -195 -59 -208
-66 -223 -69 -392 -76 -133 -6 -148 -5 -154 10 -4 9 -4 20 0 23 4 4 65 10 135
14 145 9 174 15 421 94 96 31 213 67 260 79 47 13 168 47 270 76 321 91 353
100 445 115 50 8 105 18 123 21 28 4 32 9 32 34 0 23 -8 35 -35 52 -42 28 -46
50 -7 48 54 -4 52 -9 52 133 0 173 -2 180 -49 172 -20 -3 -76 2 -126 10 -49 9
-137 25 -195 36 -58 10 -194 24 -304 31 -227 14 -226 14 -226 -70 0 -64 -19
-120 -51 -146 -23 -19 -42 -24 -125 -29 -118 -6 -129 -10 -144 -48 -7 -16 -17
-26 -22 -22 -6 3 -8 0 -6 -8 3 -8 11 -13 17 -11 8 1 9 -7 5 -25 -8 -34 -14
-42 -14 -20 0 10 -4 17 -10 17 -5 0 -10 14 -10 30 0 28 -3 30 -37 31 -21 1
-47 0 -58 -1 -28 -2 -313 -86 -359 -105 -47 -20 -65 -9 -48 29 11 24 21 29
137 61 50 15 56 19 39 25 -25 10 -529 19 -1041 20 l-343 0 0 26 0 26 657 -4
c362 -2 665 -6 673 -9 12 -3 15 5 13 41 -1 25 -5 161 -9 302 l-7 257 27 7 c35
8 33 26 -9 63 -20 17 -33 31 -29 31 7 0 86 -60 95 -72 3 -5 148 -10 322 -12
174 -3 321 -7 326 -10 11 -7 19 -74 24 -201 4 -89 4 -89 33 -98 16 -4 95 -12
175 -17 146 -10 417 -51 579 -89 46 -11 88 -18 91 -15 4 2 7 151 6 331 l-2
327 -31 2 c-19 1 -178 75 -383 178 -193 97 -359 176 -369 176 -11 0 -52 23
-93 50 -41 28 -77 50 -81 50 -5 0 -8 -10 -9 -22 0 -13 -9 -45 -18 -73 l-18
-50 -6 100 c-4 55 -10 117 -13 138 -9 54 15 49 89 -19 87 -79 104 -89 121 -74
8 6 17 19 19 28 3 9 3 -1 2 -23 l-3 -40 391 -193 c215 -106 394 -189 399 -184
4 4 5 152 2 328 l-7 320 -26 15 c-14 9 -91 72 -171 140 -80 69 -156 132 -169
142 -24 16 -25 15 -46 -13 -12 -16 -25 -27 -28 -23 -4 3 -2 12 4 20 20 23 1
14 -26 -12 -14 -14 -25 -32 -25 -40 0 -8 -4 -15 -10 -15 -15 0 -13 8 26 71 36
57 36 59 20 84 -28 42 -44 42 -79 -1 -70 -85 -97 -110 -97 -91 0 11 -5 16 -12
12 -7 -4 -4 1 6 9 11 9 16 16 12 16 -4 0 16 27 44 59 29 33 50 64 49 69 -2 5
-53 56 -114 112 -60 57 -111 107 -113 112 -2 4 7 8 20 8 25 0 56 -24 182 -138
52 -47 87 -71 99 -68 9 2 15 0 11 -5 -3 -5 -1 -9 5 -9 5 0 11 -8 13 -18 4 -24
385 -362 408 -362 5 0 16 15 24 33 7 18 29 46 47 62 32 27 209 115 313 157
137 54 635 301 675 336 l35 29 -60 40 c-32 23 -104 80 -159 127 -55 48 -133
109 -173 136 -39 27 -89 63 -110 79 -103 84 -372 288 -450 340 -73 49 -158
116 -255 199 -13 12 -20 13 -29 4 -7 -7 -19 -12 -27 -12 -8 0 -44 -12 -80 -27
-63 -26 -75 -27 -231 -28 -159 0 -167 1 -224 28 -32 15 -64 27 -70 27 -12 0
-104 60 -143 93 -38 33 -121 140 -134 173 -14 37 -22 122 -23 244 -1 81 3 105
27 166 36 92 71 146 141 216 68 68 170 122 271 143 84 18 243 19 317 4 157
-34 279 -129 359 -279 13 -25 26 -47 29 -50 3 -3 14 -22 25 -44 19 -37 19 -38
1 -52 -15 -11 -17 -16 -7 -28 15 -17 17 -169 3 -206 -13 -34 -5 -50 24 -50 13
0 24 -5 24 -10 0 -6 -3 -9 -7 -8 -5 1 -17 -1 -28 -5 -26 -9 -110 -166 -96
-180 11 -11 4 -37 -10 -37 -5 0 -9 10 -9 22 0 21 -2 21 -31 -9 l-32 -31 29
-25 c35 -31 46 -26 15 7 -19 20 -20 24 -6 36 10 8 15 9 15 1 0 -19 31 -12 51
12 18 21 18 21 19 2 1 -11 4 -14 7 -7 3 7 -1 19 -7 27 -13 16 -15 14 45 32 17
5 34 19 40 31 7 17 18 22 47 22 21 0 38 5 38 10 0 6 17 11 38 11 36 1 36 2 7
8 -16 4 -37 3 -46 -3 -9 -5 -25 -6 -35 -1 -17 6 -15 9 15 22 19 8 68 18 110
22 l76 8 -62 2 c-35 0 -63 6 -63 11 0 6 7 10 15 10 8 0 15 5 15 10 0 7 -23 9
-60 7 -33 -3 -57 0 -54 4 3 5 34 9 70 9 50 0 64 -3 64 -15 0 -8 9 -15 21 -15
11 0 17 5 14 10 -3 6 1 10 10 10 9 0 13 -5 10 -11 -5 -7 12 -9 48 -8 35 2 54
6 51 13 -3 8 78 12 267 14 190 2 269 0 264 -7 -4 -7 14 -11 52 -12 32 -1 48
-4 36 -6 -13 -2 -23 -9 -23 -15 0 -6 9 -8 19 -5 15 4 21 -1 23 -21 2 -15 10
-26 21 -28 11 -1 15 2 10 9 -4 7 1 5 12 -3 10 -8 21 -14 24 -14 3 1 11 0 16
-2 6 -2 26 -5 45 -6 34 -3 35 -4 33 -43 0 -22 1 -30 4 -17 9 44 23 21 23 -38
0 -47 3 -60 15 -60 11 0 15 -11 15 -40 0 -22 5 -40 10 -40 6 0 10 14 10 30 0
28 2 30 40 30 22 0 40 3 40 8 0 4 17 12 37 19 28 9 40 9 45 0 8 -13 10 -12 26
27 12 28 13 28 32 11 18 -16 20 -17 20 -2 0 10 8 17 20 17 11 0 20 -7 20 -15
0 -8 9 -15 20 -15 12 0 20 -7 20 -17 0 -14 2 -15 9 -4 6 10 13 11 29 2 25 -13
35 -14 28 -2 -3 5 1 12 10 15 8 3 12 2 9 -4 -3 -6 0 -10 8 -10 8 0 17 9 20 20
4 16 0 20 -21 21 -21 1 -23 2 -7 6 19 5 77 44 100 68 65 66 178 219 410 555
159 230 331 437 478 574 89 84 117 106 117 93z m-5908 -147 l-4 -80 -39 0 -39
0 0 80 0 80 43 0 42 0 -3 -80z m4853 -69 c61 -27 112 -91 206 -256 131 -228
143 -256 112 -253 -40 3 -55 -2 -49 -18 3 -8 2 -13 -2 -10 -11 6 -61 -47 -133
-139 -65 -84 -136 -175 -149 -192 -6 -7 -10 -17 -10 -22 0 -6 -11 -18 -24 -26
-17 -12 -22 -22 -18 -38 3 -14 -29 11 -94 74 -54 53 -139 134 -189 180 -164
153 -425 413 -425 424 1 23 419 233 550 276 73 24 173 24 225 0z m-5175 -1 c0
-5 -21 -10 -46 -10 -27 0 -43 4 -39 10 3 6 24 10 46 10 21 0 39 -4 39 -10z
m1648 -7 c-10 -2 -26 -2 -35 0 -10 3 -2 5 17 5 19 0 27 -2 18 -5z m-268 -10
c0 -5 -5 -15 -10 -23 -8 -12 -10 -11 -10 8 0 12 5 22 10 22 6 0 10 -3 10 -7z
m140 -8 c0 -19 -11 -19 -36 0 -18 14 -18 14 9 15 17 0 27 -5 27 -15z m-1730
-26 c0 -5 -7 -9 -15 -9 -9 0 -15 -9 -15 -25 0 -28 -17 -34 -27 -9 -4 10 1 22
10 29 10 7 17 17 17 23 0 6 7 9 15 6 8 -4 15 -10 15 -15z m77 -5 c-3 -3 -12
-4 -19 -1 -8 3 -5 6 6 6 11 1 17 -2 13 -5z m4070 -29 c41 -25 41 -41 2 -88
l-30 -37 -32 16 c-18 9 -34 18 -36 20 -6 5 50 115 57 112 4 -2 22 -12 39 -23z
m-2170 -62 c-3 -10 -5 -2 -5 17 0 19 2 27 5 18 2 -10 2 -26 0 -35z m4512 -200
c16 -72 42 -169 56 -215 48 -148 65 -219 52 -223 -7 -2 -81 -29 -165 -61 -84
-31 -155 -54 -158 -51 -4 3 1 29 10 57 22 67 38 246 34 386 l-2 112 38 58 c21
33 50 74 64 93 l26 35 8 -30 c5 -16 21 -88 37 -161z m-4679 167 c0 -5 -2 -10
-4 -10 -3 0 -8 5 -11 10 -3 6 -1 10 4 10 6 0 11 -4 11 -10z m50 -45 c0 -8 -7
-15 -15 -15 -13 0 -14 3 -3 15 16 18 18 18 18 0z m2007 -24 c103 -29 133 -35
137 -24 11 27 58 14 95 -26 20 -21 43 -41 51 -44 10 -4 8 -6 -6 -6 -12 -1 -41
-10 -65 -21 -57 -25 -69 -25 -69 3 0 43 -12 69 -30 64 -9 -2 -25 2 -35 9 -23
17 -49 18 -39 3 3 -6 -5 -4 -18 5 -15 10 -33 14 -43 9 -14 -5 -17 -3 -13 9 5
11 -6 18 -43 27 -27 7 -51 17 -55 22 -7 12 -19 14 133 -30z m-2017 -5 c0 -2
-7 -9 -15 -16 -12 -10 -15 -10 -15 4 0 9 7 16 15 16 8 0 15 -2 15 -4z m2689
-84 c-13 -10 -31 -22 -39 -25 -17 -8 -52 -29 -60 -37 -13 -13 -74 -40 -91 -40
-11 0 19 20 67 45 47 25 95 52 107 60 31 21 44 19 16 -3z m-4249 -2 c0 -5 -18
-10 -40 -10 -22 0 -40 5 -40 10 0 6 18 10 40 10 22 0 40 -4 40 -10z m3697 -32
c-3 -8 -6 -5 -6 6 -1 11 2 17 5 13 3 -3 4 -12 1 -19z m213 12 c13 -8 13 -10
-2 -10 -9 0 -20 5 -23 10 -8 13 5 13 25 0z m77 -27 c42 -18 58 -43 27 -43 -8
0 -12 5 -9 10 3 6 2 10 -4 10 -6 0 -25 9 -43 20 -41 25 -27 26 29 3z m-197
-12 c0 -5 -7 -12 -16 -15 -14 -5 -15 -4 -4 9 14 17 20 19 20 6z m-40 -17 c0
-7 6 -19 13 -26 8 -7 17 -31 21 -53 4 -22 10 -48 13 -59 3 -12 1 -16 -6 -12
-6 4 -11 0 -11 -9 0 -8 -9 -23 -20 -32 -11 -10 -20 -25 -20 -35 0 -20 -26
-124 -35 -138 -5 -8 -51 -4 -63 5 -8 7 -32 130 -28 142 3 7 23 15 44 19 l40 6
6 82 c4 44 6 91 6 103 0 16 6 21 20 20 11 -1 20 -7 20 -13z m-2480 -68 c0 -16
-54 -41 -69 -31 -20 12 -11 20 22 20 20 0 31 5 30 13 -2 6 2 12 7 12 6 0 10
-6 10 -14z m-139 -67 c12 -12 15 -19 8 -17 -8 3 -22 1 -31 -4 -14 -7 -18 -5
-18 10 0 17 8 32 17 32 2 0 13 -10 24 -21z m-68 -35 c-6 -16 -25 -14 -30 2 -2
5 6 10 16 11 14 1 18 -3 14 -13z m-263 -24 c0 -5 -18 -10 -40 -10 -22 0 -40 5
-40 10 0 6 18 10 40 10 22 0 40 -4 40 -10z m190 -10 c0 -5 -4 -10 -10 -10 -5
0 -10 5 -10 10 0 6 5 10 10 10 6 0 10 -4 10 -10z m-188 -70 c3 -39 3 -40 -27
-40 -17 0 -36 -5 -43 -12 -9 -9 -12 -9 -12 0 0 20 -16 14 -49 -17 -27 -25 -32
-36 -29 -68 3 -34 0 -38 -22 -41 -21 -3 -22 -2 -11 12 12 14 11 16 -5 16 -11
0 -26 5 -34 11 -13 9 -13 10 0 8 32 -3 41 1 37 19 -3 9 -8 30 -12 46 l-6 29
47 -6 c26 -2 41 -1 34 3 -22 14 14 40 54 40 20 0 36 5 36 10 0 6 -4 10 -10 10
-5 0 -10 5 -10 10 0 6 13 10 29 10 26 0 29 -3 33 -40z m58 -20 c0 -5 -5 -10
-11 -10 -5 0 -7 5 -4 10 3 6 8 10 11 10 2 0 4 -4 4 -10z m-47 -51 c3 -10 1
-22 -4 -25 -5 -3 -9 -1 -9 5 0 6 -6 8 -14 5 -8 -3 -17 -1 -21 5 -3 6 -1 11 5
11 6 0 9 4 6 8 -2 4 4 8 14 9 10 1 20 -7 23 -18z m-68 -39 c-3 -5 -10 -10 -16
-10 -5 0 -9 5 -9 10 0 6 7 10 16 10 8 0 12 -4 9 -10z m-70 -10 c3 -5 1 -10 -4
-10 -6 0 -11 5 -11 10 0 6 2 10 4 10 3 0 8 -4 11 -10z m-685 -80 c-7 -4 -10
-25 -9 -51 3 -40 1 -44 -19 -44 -12 0 -22 3 -22 8 0 4 0 25 0 47 0 31 6 47 28
68 l27 27 3 -24 c2 -13 -2 -27 -8 -31z m730 32 c0 -2 -6 -9 -13 -16 -10 -11
-17 -11 -30 -1 -9 6 -15 14 -13 16 5 5 56 5 56 1z m6339 -12 c13 0 21 -3 18
-7 -10 -10 -106 -13 -152 -5 l-40 6 40 7 c22 4 56 5 75 3 19 -2 46 -4 59 -4z
m1561 -9 c119 -30 289 -119 274 -143 -5 -7 -3 -8 6 -3 19 12 111 -94 104 -121
-3 -12 1 -26 10 -33 10 -8 16 -9 16 -3 0 6 -5 12 -11 14 -7 2 -10 11 -7 19 3
9 17 -7 36 -41 36 -63 37 -66 18 -73 -10 -4 -12 0 -8 15 4 16 2 19 -8 13 -10
-6 -12 -4 -7 8 3 9 1 19 -5 23 -7 4 -8 3 -4 -5 12 -19 -23 -25 -43 -7 -10 9
-21 13 -26 9 -4 -5 -5 -3 -2 4 11 18 -3 43 -24 43 -12 0 -19 7 -19 20 0 12 7
20 18 20 14 0 14 2 3 9 -19 12 -63 -17 -58 -38 2 -9 9 -15 17 -13 11 3 11 0 0
-12 -15 -19 -21 -20 -17 -3 1 9 -21 13 -80 15 -83 3 -83 3 -83 30 0 19 -10 35
-35 55 -19 15 -35 33 -34 40 0 9 2 9 6 0 7 -20 31 -15 38 7 3 11 11 20 16 20
5 0 9 11 9 24 0 23 -3 24 -51 22 -29 -2 -45 0 -37 5 7 5 27 9 45 9 17 0 35 4
38 10 3 6 -1 7 -9 4 -11 -4 -16 0 -16 10 0 16 -31 22 -93 18 -15 -1 -43 4 -63
13 -19 8 -32 10 -29 5 3 -6 -1 -10 -9 -10 -9 0 -16 5 -16 10 0 6 -31 10 -74
10 -56 0 -75 -4 -80 -15 -3 -8 0 -15 6 -15 9 0 9 -3 0 -12 -15 -15 -16 -48 -2
-48 6 0 10 -18 10 -40 0 -38 2 -40 30 -40 20 0 30 -5 30 -15 0 -11 -11 -15
-40 -15 -29 0 -40 4 -40 15 0 11 -11 15 -39 15 -36 0 -40 -3 -43 -27 l-3 -28
-28 28 c-27 26 -30 27 -148 27 l-121 0 4 -46 c3 -41 1 -45 -17 -40 -11 3 -35
6 -52 6 -32 0 -33 2 -33 40 l0 40 -80 0 -80 0 0 40 0 40 40 0 c29 0 40 -4 40
-15 0 -11 11 -15 40 -15 29 0 40 4 40 15 0 11 11 15 40 15 29 0 40 4 40 15 0
11 -11 15 -40 15 -22 0 -40 5 -40 10 0 7 -6 7 -19 0 -20 -10 -41 4 -26 18 6 7
13 7 83 10 23 1 42 7 42 12 0 6 -82 10 -226 10 -147 0 -223 -3 -219 -10 3 -5
16 -10 28 -11 l22 0 -22 -9 c-13 -5 -23 -14 -23 -20 0 -5 -9 -10 -20 -10 -16
0 -20 7 -20 30 l0 30 -82 2 c-46 2 63 5 242 8 418 8 975 3 1020 -9z m-6740 -1
c0 -5 5 -10 11 -10 5 0 7 5 3 11 -7 13 187 8 221 -5 16 -6 17 -6 5 3 -12 9
-10 11 10 10 39 -1 60 -12 51 -27 -5 -8 -11 -13 -15 -13 -3 1 -6 -2 -5 -6 0
-5 9 -7 19 -6 10 1 24 -5 31 -13 10 -13 10 -17 -2 -25 -20 -12 -25 -11 -45 8
-21 21 -84 26 -84 6 0 -8 -11 -13 -27 -13 -16 0 -45 -3 -66 -6 -29 -5 -37 -4
-35 7 2 10 -12 15 -52 19 -44 4 -50 6 -30 12 14 4 54 8 90 9 65 1 65 2 20 10
-25 4 -67 8 -94 8 -42 1 -47 3 -36 16 14 17 30 20 30 5z m2560 0 c0 -5 -2 -10
-4 -10 -3 0 -8 5 -11 10 -3 6 -1 10 4 10 6 0 11 -4 11 -10z m2325 3 c-32 -2
-66 -9 -74 -16 -12 -10 -13 -9 -7 3 6 12 5 12 -6 -1 -11 -13 -27 -14 -93 -9
-54 5 -67 8 -40 10 l40 3 -40 7 c-23 4 27 7 120 7 88 -1 133 -2 100 -4z
m-5005 -13 c0 -5 -5 -10 -11 -10 -5 0 -7 5 -4 10 3 6 8 10 11 10 2 0 4 -4 4
-10z m-1119 -8 c18 -1 28 -6 24 -12 -4 -6 -16 -8 -27 -4 -17 5 -20 3 -15 -11
5 -11 3 -15 -5 -12 -7 2 -21 -2 -30 -11 -16 -14 -18 -13 -18 1 0 19 -15 23
-25 7 -3 -5 -2 -10 3 -10 6 0 12 -7 15 -14 4 -10 1 -13 -9 -9 -8 3 -26 -3 -41
-12 -22 -15 -25 -15 -20 -2 3 9 1 18 -6 21 -9 3 -8 7 2 14 7 5 11 14 7 20 -3
5 1 12 9 16 8 3 15 1 15 -4 0 -6 7 -10 16 -10 10 0 14 6 11 14 -8 19 -1 23 33
21 17 -1 44 -2 61 -3z m7117 -7 c3 -3 -15 -5 -39 -4 -32 0 -39 3 -24 8 20 8
53 6 63 -4z m642 -6 c0 -11 -4 -18 -10 -14 -5 3 -7 12 -3 20 7 21 13 19 13 -6z
m-6680 1 c0 -5 -10 -10 -22 -9 -22 0 -22 1 -3 9 11 5 21 9 23 9 1 1 2 -3 2 -9z
m-43 -21 c6 -6 45 -12 87 -12 66 -1 76 -4 76 -19 0 -19 -15 -24 -25 -8 -3 6
-16 10 -28 9 -20 -1 -20 -2 3 -8 l25 -7 -22 -12 c-30 -17 -78 -15 -93 3 -14
17 -67 20 -72 4 -2 -5 -11 -11 -20 -13 -10 -1 -20 -5 -24 -8 -3 -4 -12 -4 -20
-1 -8 3 -14 -1 -14 -10 0 -8 -9 -17 -19 -20 -14 -3 -18 -11 -15 -25 4 -12 0
-22 -10 -25 -9 -4 -16 -2 -16 3 0 6 -4 10 -10 10 -14 0 -12 -47 3 -54 6 -3 2
-3 -10 0 -17 4 -21 2 -17 -9 3 -8 1 -18 -5 -22 -6 -3 -14 1 -17 9 -3 9 -10 16
-15 16 -4 0 -6 -7 -3 -15 4 -11 2 -13 -9 -9 -10 3 -18 -2 -22 -18 -4 -13 -11
-25 -15 -28 -18 -14 -54 -110 -60 -164 l-7 -61 -1 50 c-3 118 91 279 225 387
31 24 64 40 70 34 3 -2 14 4 26 15 24 22 38 24 54 8z m5073 1 c0 -5 -7 -10
-15 -10 -8 0 -15 5 -15 10 0 6 7 10 15 10 8 0 15 -4 15 -10z m1925 0 c3 -5 -1
-10 -9 -10 -9 0 -16 5 -16 10 0 6 4 10 9 10 6 0 13 -4 16 -10z m-4133 -19 c5
-4 -7 -6 -25 -6 -45 2 -49 4 -42 15 6 10 53 4 67 -9z m38 -7 c0 -8 -4 -14 -10
-14 -5 0 -10 9 -10 21 0 11 5 17 10 14 6 -3 10 -13 10 -21z m-4150 0 c0 -14
-3 -14 -15 -4 -8 7 -15 14 -15 16 0 2 7 4 15 4 8 0 15 -7 15 -16z m6237 -10
c-3 -3 -12 -4 -19 -1 -8 3 -5 6 6 6 11 1 17 -2 13 -5z m91 -1 c-30 -3 -38 -9
-38 -24 0 -10 -4 -19 -10 -19 -5 0 -10 6 -10 13 0 23 23 37 60 35 l35 -1 -37
-4z m439 1 c-3 -3 -12 -4 -19 -1 -8 3 -5 6 6 6 11 1 17 -2 13 -5z m-5028 -46
c-1 -24 -3 -35 -6 -25 -6 23 -83 25 -83 2 0 -9 -9 -15 -25 -15 -22 0 -25 4
-25 40 l0 40 70 0 70 0 -1 -42z m6311 27 c0 -11 11 -15 40 -15 23 0 40 -5 40
-11 0 -6 9 -9 20 -6 11 3 20 1 20 -4 0 -12 -37 -11 -45 1 -3 6 -37 10 -75 10
-66 0 -88 9 -75 30 10 17 75 12 75 -5z m-8060 -15 c0 -5 -2 -10 -4 -10 -3 0
-8 5 -11 10 -3 6 -1 10 4 10 6 0 11 -4 11 -10z m4265 0 c4 -6 -6 -10 -22 -10
-22 0 -25 2 -13 10 19 12 27 12 35 0z m3910 0 c-3 -5 -10 -10 -16 -10 -5 0 -9
5 -9 10 0 6 7 10 16 10 8 0 12 -4 9 -10z m-5248 -46 c-15 -16 -29 -25 -33 -22
-10 10 40 67 50 58 4 -5 -3 -21 -17 -36z m4093 37 c0 -5 10 -11 23 -13 12 -2
22 -10 21 -19 -1 -12 9 -15 45 -14 52 2 71 -3 71 -16 0 -5 -18 -9 -40 -9 -30
0 -40 -4 -40 -16 0 -15 -9 -16 -61 -10 -34 3 -88 6 -120 6 l-59 0 0 50 0 50
80 0 c44 0 80 -4 80 -9z m-6935 -39 c-8 -8 -25 10 -25 26 0 13 2 13 14 -4 8
-10 13 -21 11 -22z m1765 28 c0 -5 -2 -10 -4 -10 -3 0 -8 5 -11 10 -3 6 -1 10
4 10 6 0 11 -4 11 -10z m0 -67 c0 -15 -16 -17 -25 -3 -3 6 -1 10 5 10 7 0 5 7
-4 16 -9 8 -16 23 -16 32 0 12 7 7 20 -13 11 -16 20 -36 20 -42z m4583 60
c-25 -9 -13 -22 24 -25 39 -3 60 -28 24 -28 -12 0 -21 5 -21 10 0 6 -18 10
-40 10 -33 0 -40 3 -40 20 0 16 6 20 33 19 17 0 26 -3 20 -6z m-213 -33 c0 -5
-4 -10 -10 -10 -5 0 -10 5 -10 10 0 6 5 10 10 10 6 0 10 -4 10 -10z m-6147
-44 c-18 -25 -43 -42 -43 -28 0 11 51 64 57 58 3 -2 -3 -16 -14 -30z m1507 14
c0 -5 -7 -10 -15 -10 -8 0 -15 5 -15 10 0 6 7 10 15 10 8 0 15 -4 15 -10z
m3005 0 c3 -5 -1 -10 -9 -10 -9 0 -16 5 -16 10 0 6 4 10 9 10 6 0 13 -4 16
-10z m-3458 -17 c-9 -2 -15 -9 -12 -14 4 -5 -1 -9 -9 -9 -9 0 -16 7 -16 15 0
10 9 15 28 14 17 -1 20 -3 9 -6z m5362 -19 c2 -2 -28 -4 -67 -4 -40 0 -72 4
-72 9 0 8 130 3 139 -5z m-6469 -34 c0 -15 -5 -12 -26 11 -19 22 -19 22 4 10
12 -6 22 -16 22 -21z m1900 -10 c0 -38 2 -40 29 -40 16 0 32 5 34 10 3 6 4 5
3 -2 -3 -17 -62 -28 -76 -14 -8 8 -11 7 -8 -4 2 -11 -9 -16 -42 -20 -36 -5
-40 -7 -20 -12 15 -3 2 -6 -33 -7 -57 -1 -58 -1 -55 -28 3 -27 5 -28 70 -30
36 -2 77 1 90 6 20 8 18 9 -15 9 -20 -1 -40 2 -44 5 -3 4 23 7 58 7 53 0 66
-3 77 -20 7 -11 9 -20 5 -19 -34 5 -143 -3 -143 -11 0 -5 15 -10 34 -10 56 0
154 -38 191 -74 12 -11 36 -34 54 -49 18 -16 48 -61 67 -100 31 -64 34 -80 34
-158 0 -91 -8 -149 -20 -149 -3 0 -5 12 -3 28 3 15 0 38 -6 52 -7 18 -10 20
-10 8 -1 -11 -9 -18 -21 -18 -11 0 -20 -6 -20 -14 0 -8 -5 -18 -12 -22 -6 -4
-8 -3 -5 2 8 14 -23 30 -58 29 -25 -1 -32 -6 -42 -35 l-11 -35 -4 35 c-3 20
-6 3 -6 -37 l-2 -73 -170 0 c-129 0 -170 3 -171 13 -1 6 -1 55 1 108 1 58 -2
99 -8 103 -6 3 -13 -2 -17 -13 -6 -19 -57 -36 -63 -21 -5 12 -74 0 -93 -16
-19 -17 -59 -18 -59 -2 0 6 -7 3 -15 -8 -15 -18 -16 -17 -10 14 4 21 3 32 -5
32 -13 0 -6 51 16 119 28 86 101 166 201 221 23 13 40 27 37 31 -3 5 2 6 11 3
8 -4 26 1 40 10 13 9 44 16 67 17 33 0 38 2 23 9 -11 5 -32 9 -47 9 -29 1 -35
10 -17 28 7 7 -3 8 -33 5 -24 -3 -60 -6 -80 -6 -21 0 -38 -5 -38 -11 0 -6 -17
-9 -41 -7 -31 3 -39 8 -37 21 2 9 11 15 22 13 9 -2 24 2 31 8 10 8 19 8 35 0
12 -7 33 -9 46 -6 28 7 33 36 7 36 -10 0 -29 9 -43 20 l-25 19 88 -2 c72 -2
87 1 87 13 0 13 1 13 10 0 7 -11 10 -4 10 28 l0 42 75 0 75 0 0 -40z m-1926
-6 c3 -8 2 -12 -4 -9 -6 3 -10 10 -10 16 0 14 7 11 14 -7z m2026 -4 c0 -5 -2
-10 -4 -10 -3 0 -8 5 -11 10 -3 6 -1 10 4 10 6 0 11 -4 11 -10z m-920 -9 c0
-5 -7 -11 -15 -15 -15 -5 -20 5 -8 17 9 10 23 9 23 -2z m288 -89 c2 -7 -7 -12
-22 -12 -21 0 -26 5 -26 26 0 25 1 26 22 12 12 -8 24 -20 26 -26z m752 21 c0
-12 3 -13 15 -3 15 13 39 5 30 -11 -4 -5 10 -9 29 -9 19 0 37 -4 40 -9 3 -4
-7 -6 -22 -4 -25 4 -25 3 -9 -10 9 -8 17 -19 17 -26 0 -6 12 -16 28 -22 25
-10 26 -12 7 -19 -11 -4 14 -6 58 -5 46 2 75 0 72 -6 -4 -5 -67 -9 -142 -9
-128 0 -135 1 -122 18 13 15 12 16 -4 3 -15 -12 -20 -12 -35 2 -9 8 -35 23
-57 32 -22 10 -34 19 -27 22 23 9 12 20 -28 27 -22 3 -40 11 -40 17 0 7 10 9
24 7 13 -3 30 0 38 6 8 6 41 12 72 12 44 1 56 -2 56 -13z m880 -3 c0 -17 -2
-19 -14 -8 -10 9 -11 15 -2 20 16 11 16 10 16 -12z m-1520 -15 c0 -10 -11 -15
-35 -15 -19 0 -35 5 -35 11 0 5 -4 7 -10 4 -5 -3 -10 -1 -10 4 0 6 20 11 45
11 33 0 45 -4 45 -15z m1340 0 c9 -10 9 -15 1 -15 -6 0 -11 5 -11 11 0 6 -7 8
-16 5 -8 -3 -12 -2 -9 4 9 14 21 12 35 -5z m5460 -5 c0 -5 -7 -10 -15 -10 -8
0 -15 5 -15 10 0 6 7 10 15 10 8 0 15 -4 15 -10z m320 -6 c0 -8 4 -13 9 -10 5
4 12 0 14 -6 4 -8 9 -4 13 11 7 23 7 22 23 -10 13 -28 16 -83 18 -302 1 -147
-2 -278 -6 -290 -10 -27 -19 101 -20 287 0 132 -6 186 -21 186 -4 0 -23 -14
-41 -31 -31 -29 -34 -30 -46 -13 -7 10 -13 13 -13 7 0 -5 -12 -23 -26 -39 -19
-21 -24 -23 -19 -9 4 11 9 33 10 49 2 15 8 33 14 39 17 17 13 47 -6 47 -17 1
-17 1 0 14 9 7 17 24 17 37 0 15 9 28 23 35 33 17 57 16 57 -2z m-8697 -19
c-3 -9 -8 -14 -10 -11 -3 3 -2 9 2 15 9 16 15 13 8 -4z m4855 -27 c-29 -54
-27 -52 -33 -47 -2 3 2 18 10 33 8 16 15 35 15 42 0 8 7 14 16 14 13 0 11 -7
-8 -42z m-3360 -16 c-1 -16 -8 -29 -15 -29 -7 0 -13 4 -13 9 0 4 5 8 10 8 6 0
10 9 10 20 0 11 2 20 5 20 3 0 4 -13 3 -28z m266 16 c-3 -4 -9 -8 -15 -8 -5 0
-9 4 -9 8 0 5 7 9 15 9 8 0 12 -4 9 -9z m6244 -20 c7 -7 30 -18 50 -24 33 -11
26 -12 -70 -13 -60 -1 -108 3 -108 8 0 5 19 7 43 5 32 -2 35 -2 13 4 -16 4
-31 13 -34 20 -5 16 90 16 106 0z m-6728 -18 c0 -5 -5 -10 -11 -10 -5 0 -7 5
-4 10 3 6 8 10 11 10 2 0 4 -4 4 -10z m5285 -12 c-33 -5 -89 -7 -125 -5 -61 3
-60 3 18 5 46 1 81 5 79 10 -3 4 16 5 41 3 l47 -5 -60 -8z m-5146 8 c-2 -2
-21 -6 -42 -10 -27 -5 -37 -4 -32 3 3 6 22 11 42 11 20 0 34 -2 32 -4z m166
-6 c-3 -5 -18 -9 -33 -9 l-27 1 30 8 c17 4 31 8 33 9 2 0 0 -3 -3 -9z m5279
-2 c-3 -4 -24 -8 -47 -8 -24 0 -37 4 -30 8 16 10 83 10 77 0z m46 0 c0 -4 -7
-8 -15 -8 -8 0 -15 4 -15 8 0 5 7 9 15 9 8 0 15 -4 15 -9z m63 5 c-7 -2 -19
-2 -25 0 -7 3 -2 5 12 5 14 0 19 -2 13 -5z m470 0 c-7 -2 -21 -2 -30 0 -10 3
-4 5 12 5 17 0 24 -2 18 -5z m397 -3 c0 -5 -17 -10 -37 -10 -28 0 -34 3 -23
10 20 13 60 13 60 0z m520 -4 c8 -2 -19 -4 -60 -5 -41 0 -80 3 -87 7 -11 7
113 5 147 -2z m200 -1 c0 -9 -8 -25 -18 -36 -18 -18 -21 -18 -55 -4 -20 8 -49
16 -64 16 -15 1 1 5 36 10 35 4 68 6 73 3 4 -3 8 2 8 10 0 9 5 16 10 16 6 0
10 -7 10 -15z m-8615 -5 c3 -5 2 -10 -4 -10 -5 0 -13 5 -16 10 -3 6 -2 10 4
10 5 0 13 -4 16 -10z m1263 -11 c-26 -19 -41 -48 -18 -34 14 9 13 6 -15 -49
-25 -49 -25 -49 -25 -17 0 19 4 30 10 26 13 -8 13 6 0 39 -7 19 -6 25 3 23 7
-1 11 4 9 11 -1 8 2 11 7 8 5 -4 12 -2 16 4 3 5 14 10 23 10 13 -1 10 -6 -10
-21z m2505 14 c-7 -2 -21 -2 -30 0 -10 3 -4 5 12 5 17 0 24 -2 18 -5z m-1258
-16 c22 -2 -33 -4 -122 -5 -90 -1 -163 1 -163 6 0 6 190 6 285 -1z m1108 -4
c-13 -2 -33 -2 -45 0 -13 2 -3 4 22 4 25 0 35 -2 23 -4z m685 0 c-32 -2 -84
-2 -115 0 -32 2 -6 3 57 3 63 0 89 -1 58 -3z m1915 0 c-7 -2 -19 -2 -25 0 -7
3 -2 5 12 5 14 0 19 -2 13 -5z m200 0 c-13 -2 -33 -2 -45 0 -13 2 -3 4 22 4
25 0 35 -2 23 -4z m70 0 c-7 -2 -19 -2 -25 0 -7 3 -2 5 12 5 14 0 19 -2 13 -5z
m470 0 c-13 -2 -33 -2 -45 0 -13 2 -3 4 22 4 25 0 35 -2 23 -4z m180 0 c-7 -2
-19 -2 -25 0 -7 3 -2 5 12 5 14 0 19 -2 13 -5z m1270 0 c-18 -2 -48 -2 -65 0
-18 2 -4 4 32 4 36 0 50 -2 33 -4z m-4885 -10 c-10 -2 -26 -2 -35 0 -10 3 -2
5 17 5 19 0 27 -2 18 -5z m5112 -43 c0 -5 -2 -10 -4 -10 -3 0 -8 5 -11 10 -3
6 -1 10 4 10 6 0 11 -4 11 -10z m-1864 -80 c38 -36 67 -105 60 -144 -13 -66
-110 -136 -188 -136 -46 1 -111 40 -135 83 -35 62 0 172 65 207 54 30 160 24
198 -10z m1894 -15 c-6 -30 -8 -33 -9 -13 -1 25 8 62 14 56 2 -2 -1 -21 -5
-43z m-20 -70 c0 -5 -5 -3 -10 5 -5 8 -10 20 -10 25 0 6 5 3 10 -5 5 -8 10
-19 10 -25z m-2876 -44 c4 -5 -17 -24 -45 -43 -165 -107 -179 -114 -179 -79 0
11 -9 23 -21 26 -20 7 -20 8 7 36 42 44 221 89 238 60z m2853 -83 c-2 -13 -4
-3 -4 22 0 25 2 35 4 23 2 -13 2 -33 0 -45z m-6063 31 c-8 -14 20 -11 35 4 10
10 11 9 6 -5 -8 -20 -38 -33 -43 -19 -2 6 -12 11 -23 11 -10 0 -19 4 -19 9 0
5 11 9 25 9 13 0 22 -4 19 -9z m1221 -47 c-3 -3 -11 0 -18 7 -9 10 -8 11 6 5
10 -3 15 -9 12 -12z m2625 6 c0 -7 -22 -27 -48 -45 -26 -17 -126 -84 -222
-150 -278 -187 -260 -176 -260 -154 0 13 36 47 108 102 185 142 315 232 351
245 46 17 71 17 71 2z m-610 -35 c0 -10 -6 -25 -13 -33 -19 -25 -77 -62 -77
-51 0 6 5 11 10 11 6 0 15 12 21 27 10 28 38 61 52 62 4 1 7 -7 7 -16z m-4372
-21 c22 -16 39 -44 62 -103 29 -75 30 -83 15 -105 -8 -13 -21 -21 -28 -19 -17
7 -16 91 1 88 16 -4 15 19 -3 43 -13 17 -14 17 -15 2 0 -20 -20 -25 -20 -5 0
9 -3 8 -9 -2 -5 -8 -14 -10 -21 -6 -8 5 -18 2 -24 -7 -6 -8 -32 -22 -57 -32
-51 -19 -108 -61 -97 -71 10 -10 159 34 191 56 l27 20 0 -46 c0 -31 -5 -47
-15 -51 -8 -4 -15 -12 -15 -20 0 -21 18 -17 25 6 3 11 13 20 21 20 21 0 17 -9
-18 -42 -56 -49 -86 -61 -146 -56 -46 4 -60 10 -83 36 -36 40 -52 101 -47 175
5 66 27 103 79 130 47 25 134 19 177 -11z m6512 -82 c0 -5 -7 -10 -15 -10 -8
0 -15 5 -15 10 0 6 7 10 15 10 8 0 15 -4 15 -10z m-5590 -4 c0 -3 -4 -8 -10
-11 -5 -3 -10 -1 -10 4 0 6 5 11 10 11 6 0 10 -2 10 -4z m4763 -55 c-11 -18
-7 -19 57 -23 92 -5 110 -21 110 -97 0 -31 -4 -61 -8 -66 -4 -7 -61 -11 -149
-10 -114 0 -144 -3 -148 -14 -3 -8 -2 -18 2 -22 4 -4 72 -5 151 -1 110 5 142
4 142 -5 0 -13 -35 -16 -227 -17 l-83 -1 0 83 0 82 140 0 c135 0 140 -1 140
-21 0 -20 -4 -20 -130 -17 l-130 3 0 -27 0 -26 138 5 c83 4 140 10 144 17 14
20 8 56 -12 76 -18 18 -34 20 -157 20 l-138 1 40 35 c22 20 53 44 70 55 26 16
31 17 45 4 12 -12 12 -19 3 -34z m-4733 -28 c360 -166 594 -288 783 -407 93
-59 112 -76 84 -76 -20 0 -192 85 -251 125 -28 18 -71 42 -96 53 -25 11 -115
53 -200 94 -85 41 -209 101 -276 133 -117 56 -121 58 -110 81 6 13 13 23 16
21 3 -2 25 -12 50 -24z m6460 -65 c-1 -26 -3 -30 -10 -16 -6 9 -7 23 -4 32 9
25 14 19 14 -16z m-500 -169 c0 -125 -4 -180 -12 -191 -15 -18 -78 -30 -120
-21 l-30 6 6 63 6 63 -40 27 c-22 15 -43 24 -47 20 -3 -3 -1 -6 5 -6 7 0 12
-6 12 -14 0 -8 9 -18 20 -21 11 -3 20 -13 20 -21 0 -8 -9 -14 -20 -14 -11 0
-20 -4 -20 -10 0 -5 -5 -10 -11 -10 -11 0 -103 -64 -376 -262 -68 -49 -123
-94 -123 -100 0 -5 49 -69 108 -141 59 -73 111 -140 115 -151 6 -16 9 -17 30
-4 43 28 113 50 202 64 79 13 91 13 100 0 8 -10 16 -12 26 -5 22 14 36 11 56
-11 10 -10 38 -22 61 -26 l42 -7 0 161 c0 88 3 167 6 176 17 45 24 -2 24 -168
0 -170 1 -185 18 -190 10 -4 29 -21 42 -39 21 -27 25 -48 31 -142 4 -60 5
-120 2 -133 -3 -14 1 -30 11 -41 16 -17 15 -19 -4 -24 -44 -11 -18 -39 55 -62
39 -12 133 -52 210 -89 77 -37 174 -80 215 -96 41 -15 118 -47 170 -69 52 -23
123 -50 158 -61 34 -11 71 -24 81 -29 16 -9 20 -6 25 21 3 17 6 49 6 72 0 43
29 118 58 149 39 43 62 46 474 46 478 0 618 -7 649 -35 51 -46 52 -52 57 -465
5 -382 4 -387 -17 -430 -25 -50 -72 -85 -133 -98 -24 -5 -169 -12 -322 -16
-154 -3 -281 -7 -282 -8 -2 -1 4 -126 12 -276 9 -162 11 -278 6 -283 -19 -19
-39 22 -45 89 -8 90 -22 411 -19 446 l2 27 -132 0 c-196 1 -238 15 -289 97
-14 23 -20 50 -20 89 0 52 -2 55 -17 41 -19 -17 -236 -121 -352 -169 -41 -17
-149 -65 -240 -106 -91 -41 -232 -101 -315 -133 -82 -33 -161 -65 -175 -71
l-25 -11 31 -13 c17 -7 130 -42 250 -78 458 -137 717 -217 950 -295 133 -45
252 -81 266 -81 22 0 58 34 58 55 0 4 -25 33 -57 66 -31 32 -53 62 -50 66 4 3
41 -22 82 -56 99 -82 111 -80 201 32 66 82 84 99 84 78 0 -15 -47 -108 -71
-143 -26 -36 -24 -51 14 -90 49 -51 87 -99 87 -109 0 -5 -9 -9 -20 -9 -10 0
-28 -10 -40 -22 -18 -19 -20 -35 -20 -137 0 -64 4 -131 9 -149 7 -24 6 -32 -3
-32 -18 0 -36 57 -52 166 -16 107 -34 144 -71 144 -46 0 -59 -28 -83 -185 -13
-83 -25 -110 -35 -83 -9 22 22 193 40 229 l16 29 -38 -26 c-21 -14 -128 -74
-238 -133 l-200 -106 3 -65 c2 -35 1 -79 -3 -98 l-6 -33 -242 3 -242 3 -3 185
c-3 250 -26 230 258 230 251 0 236 6 243 -96 2 -36 8 -58 15 -57 6 2 46 23 89
49 43 25 127 71 188 101 60 30 120 62 132 70 l23 16 -39 28 c-29 22 -92 44
-242 85 -112 30 -292 82 -399 115 -553 170 -699 216 -855 265 -209 65 -225 69
-225 55 0 -19 -38 -12 -68 14 -16 14 -70 40 -118 59 -54 21 -90 41 -92 50 -5
23 24 20 130 -10 49 -14 115 -31 146 -36 124 -22 123 -22 461 125 173 76 423
187 557 248 133 61 255 112 271 113 l28 3 3 207 2 207 -32 -6 c-154 -26 -411
-66 -462 -71 l-63 -6 -157 76 c-86 42 -223 105 -304 140 -81 35 -172 75 -203
89 -56 26 -75 51 -58 78 6 11 31 4 116 -31 127 -52 438 -192 540 -244 56 -28
85 -36 125 -36 60 0 348 41 348 49 0 3 -55 28 -123 55 -67 28 -158 67 -203 88
-45 21 -86 38 -93 38 -6 0 -62 25 -124 56 -109 54 -192 91 -271 120 -35 13
-38 12 -32 -2 6 -15 4 -15 -16 -2 -20 14 -25 14 -47 -1 -21 -13 -58 -16 -231
-16 -113 0 -208 -4 -211 -9 -4 -5 -31 -21 -60 -35 -38 -18 -55 -33 -57 -48 -4
-25 -22 -32 -22 -8 0 25 -41 18 -192 -36 -78 -28 -206 -73 -283 -100 -77 -26
-189 -65 -248 -86 l-108 -38 0 -268 c1 -176 -2 -266 -9 -262 -6 4 -10 71 -10
168 0 89 -5 182 -11 207 -6 25 -11 72 -11 105 1 32 -4 65 -10 72 -5 7 -7 24
-4 38 4 14 3 25 -2 25 -17 0 -33 120 -33 247 0 73 -4 135 -9 138 -5 3 -4 17 2
31 10 20 8 27 -8 39 -15 12 -16 16 -6 23 18 12 29 166 14 185 -6 7 -13 28 -15
47 -20 158 -20 154 1 178 11 12 23 22 28 22 5 1 24 21 42 45 18 25 37 45 42
45 6 0 7 -91 3 -244 -5 -216 -4 -248 10 -269 14 -22 14 -26 2 -31 -13 -4 -15
-44 -15 -245 0 -132 3 -242 8 -244 4 -3 59 15 122 40 253 97 714 255 781 268
21 4 36 12 36 21 0 8 -4 14 -8 14 -5 0 -11 17 -15 38 -4 20 -11 40 -15 43 -5
3 -42 1 -81 -4 -77 -9 -133 2 -126 26 3 7 33 16 69 20 35 4 79 10 97 13 l33 5
-3 57 c-3 56 -3 57 -38 63 -38 6 -139 47 -155 62 -12 11 28 1 68 -18 15 -8 42
-11 60 -8 24 3 39 0 50 -12 16 -15 17 -14 12 22 -2 21 -1 51 3 66 7 26 1 36
-61 100 -38 39 -100 111 -139 159 -40 49 -74 85 -77 80 -3 -5 -61 -52 -128
-106 -68 -53 -123 -101 -123 -105 0 -5 7 -25 15 -44 19 -46 21 -97 3 -79 -7 7
-18 31 -23 54 -6 23 -16 43 -22 45 -12 4 -134 -76 -179 -119 -27 -26 -32 -27
-44 -13 -19 23 -1 55 51 90 24 16 131 94 237 173 l192 143 -30 42 c-16 23 -53
71 -81 107 -145 184 -159 210 -116 210 16 -1 38 -22 77 -74 101 -134 175 -225
188 -230 7 -3 39 13 72 37 406 290 390 277 390 311 0 18 7 41 15 52 8 10 15
22 15 25 0 12 -119 28 -245 35 -169 9 -200 15 -200 39 0 19 7 20 165 20 205 0
200 -1 200 29 0 31 -15 36 -106 36 -42 0 -74 4 -74 10 0 8 247 15 518 15 22 0
22 0 22 -176z m-9113 29 c-3 -8 -6 -5 -6 6 -1 11 2 17 5 13 3 -3 4 -12 1 -19z
m7506 -40 c32 -1 60 -4 62 -8 5 -7 -120 -40 -145 -38 -8 1 -63 0 -122 0 l-107
-2 -34 -35 c-27 -28 -36 -32 -40 -20 -4 8 -15 15 -26 15 -15 0 -19 5 -14 17 5
12 2 15 -9 10 -10 -3 -19 0 -22 8 -4 10 7 18 37 25 23 6 58 17 77 25 26 11 66
13 160 10 69 -3 151 -6 183 -7z m-4965 -27 c7 -4 22 -59 32 -122 11 -63 29
-152 40 -199 26 -111 26 -150 2 -150 -15 0 -23 17 -41 83 -12 46 -31 98 -41
115 -17 28 -20 51 -20 157 0 69 3 125 8 125 4 0 13 -4 20 -9z m5365 -108 c5
-9 -26 -233 -49 -348 -26 -130 -139 -348 -121 -232 3 17 17 63 31 100 23 60
86 367 86 418 0 12 -7 19 -20 19 -11 0 -20 6 -20 14 0 22 82 47 93 29z m2207
-453 c1 -127 -7 -120 132 -120 l119 0 -3 -82 c-2 -54 -7 -83 -15 -86 -10 -3
-13 14 -13 62 l0 66 -62 0 c-35 0 -80 3 -100 6 -37 6 -38 6 -38 -25 0 -23 5
-31 18 -31 57 -1 70 -68 15 -84 -29 -9 -32 -14 -35 -55 l-3 -46 -34 50 -33 49
11 117 c6 65 11 148 11 186 0 37 3 86 7 108 l7 40 7 -40 c5 -22 8 -74 9 -115z
m-7951 50 c80 -34 210 -91 290 -129 80 -38 164 -74 186 -81 50 -16 65 -27 65
-52 0 -34 -30 -32 -113 10 -123 62 -370 172 -386 172 -11 0 -13 -13 -8 -65 5
-48 3 -65 -6 -65 -14 0 -147 139 -147 154 0 6 19 -8 43 -31 23 -22 52 -46 65
-52 23 -12 23 -11 20 34 l-3 46 -89 39 c-98 44 -112 53 -102 69 12 19 38 12
185 -49z m121 -169 c0 -5 -6 -14 -14 -20 -12 -10 -13 -8 -9 8 5 21 23 30 23
12z m707 -43 c-3 -7 -5 -2 -5 12 0 14 2 19 5 13 2 -7 2 -19 0 -25z m-1532 -6
c11 -9 36 -31 55 -49 19 -17 94 -84 165 -148 174 -157 475 -436 475 -441 0 -3
-41 31 -91 73 -234 201 -286 246 -418 360 -77 67 -166 139 -198 160 -63 41
-74 53 -66 66 7 12 51 0 78 -21z m271 -32 c38 -6 146 -22 239 -35 307 -45 315
-48 315 -91 0 -35 -21 -40 -42 -11 -16 23 -23 25 -40 16 -11 -6 -30 -8 -42 -5
-30 9 -224 44 -341 61 -182 26 -297 55 -303 75 -5 14 77 11 214 -10z m1954
-161 c0 -6 -4 -7 -10 -4 -5 3 -10 11 -10 16 0 6 5 7 10 4 6 -3 10 -11 10 -16z
m-3083 -77 c7 -26 18 -76 24 -112 6 -36 15 -69 19 -74 8 -8 20 27 34 94 2 14
3 0 1 -30 -4 -52 -7 -72 -22 -160 l-6 -35 -13 55 c-13 54 -46 221 -58 289 -8
48 6 30 21 -27z m6839 -34 c-2 -35 -5 -70 -5 -78 -2 -41 -492 -426 -1051 -827
-107 -76 -233 -167 -280 -201 -47 -34 -90 -62 -97 -62 -7 0 -17 17 -23 38 -10
36 -9 38 33 77 24 22 82 67 128 99 684 483 1072 784 1213 940 37 42 72 76 77
76 5 0 8 -28 5 -62z m1699 -207 c-3 -6 -16 -11 -28 -11 -21 1 -21 1 3 15 27
14 36 13 25 -4z m1165 -2 c0 -6 -4 -7 -10 -4 -5 3 -10 11 -10 16 0 6 5 7 10 4
6 -3 10 -11 10 -16z m-2852 -251 c3 -36 1 -39 -105 -123 -59 -47 -164 -125
-232 -173 -68 -48 -167 -119 -220 -158 -53 -39 -136 -100 -186 -135 -173 -125
-360 -263 -395 -291 -83 -66 -252 -189 -281 -204 -37 -18 -47 -11 -55 37 -6
35 -5 35 118 125 67 49 161 118 208 152 307 228 415 306 660 480 151 107 300
217 330 242 68 59 120 91 140 88 9 -2 16 -17 18 -40z m1254 10 c24 -12 46 -26
50 -32 11 -16 20 -124 12 -138 -5 -7 -7 -20 -6 -29 2 -9 -4 -19 -13 -22 -11
-5 -15 1 -15 23 0 17 1 31 2 33 1 1 -4 12 -10 24 -10 17 -18 20 -49 16 -21 -2
-50 0 -64 5 -23 9 -27 18 -32 64 -4 41 -2 56 11 66 24 18 66 15 114 -10z
m-7414 -195 c-3 -15 -16 -19 -71 -21 -52 -2 -67 0 -67 11 0 23 11 27 77 27 56
0 64 -2 61 -17z m7362 -132 c0 -6 -4 -13 -10 -16 -5 -3 -10 1 -10 9 0 9 5 16
10 16 6 0 10 -4 10 -9z m-252 -337 l122 -7 0 -89 c0 -49 -5 -98 -10 -108 -16
-29 -38 -13 -45 32 l-7 40 -64 -5 c-43 -4 -72 -12 -90 -26 -15 -12 -32 -21
-40 -21 -7 0 -14 -6 -17 -12 -7 -18 -33 47 -48 118 -17 81 -10 98 39 91 20 -3
92 -9 160 -13z m-1358 -19 c5 -14 7 -30 4 -37 -3 -7 -92 -75 -197 -151 -269
-193 -593 -426 -716 -515 l-103 -74 -21 21 c-44 44 -14 72 368 343 55 40 173
125 263 190 241 176 350 248 373 248 12 0 23 -10 29 -25z m400 -78 l0 -54 -87
-70 c-253 -202 -1321 -937 -1347 -927 -20 8 -27 32 -21 68 5 26 17 37 68 64
34 18 130 79 212 136 83 57 208 144 278 193 71 48 166 115 213 148 46 33 116
83 156 111 248 173 359 255 424 316 41 37 81 68 89 68 11 0 15 -12 15 -53z
m-4876 12 c-3 -6 -1 -15 7 -19 10 -7 10 -16 1 -49 -17 -55 -32 -61 -32 -12 0
40 14 91 25 91 4 0 3 -5 -1 -11z m5651 -161 c9 2 13 -3 9 -12 -5 -13 -1 -13
28 -4 18 7 53 12 77 12 56 1 84 -30 79 -86 l-3 -37 75 -3 75 -3 14 -87 c7 -48
11 -94 8 -103 -5 -10 -20 -15 -50 -15 -24 0 -65 -3 -89 -6 l-46 -6 6 -168 c3
-119 2 -169 -7 -174 -6 -4 -11 -1 -11 8 0 8 -4 16 -10 18 -12 4 -18 193 -8
266 4 29 3 50 -2 47 -5 -3 -10 5 -12 17 -2 15 -23 34 -63 58 -64 37 -182 128
-153 117 14 -5 15 -3 2 21 -12 23 -12 28 1 38 19 14 19 24 0 24 -17 0 -20 16
-4 26 6 3 9 19 7 35 -4 25 -2 28 14 23 13 -4 18 0 18 13 1 17 2 16 16 -2 8
-11 22 -19 29 -17z m5 22 c0 -5 -2 -10 -4 -10 -3 0 -8 5 -11 10 -3 6 -1 10 4
10 6 0 11 -4 11 -10z m-6465 -75 c0 -19 -8 -20 -246 -23 -207 -2 -248 0 -258
12 -28 33 -3 36 252 34 244 -3 252 -4 252 -23z m6055 -145 c52 -44 137 -115
189 -157 96 -79 232 -211 258 -249 20 -30 10 -46 -69 -110 -38 -31 -66 -60
-61 -64 15 -13 244 5 253 21 7 11 10 10 16 -4 3 -9 14 -17 23 -17 23 -1 92
-34 118 -57 13 -11 32 -40 43 -64 18 -40 20 -66 20 -261 l0 -218 33 0 c31 0
262 -52 597 -134 80 -19 231 -56 335 -81 105 -25 196 -50 204 -54 8 -5 11 -16
7 -26 -5 -14 -15 -16 -59 -10 -106 13 -340 67 -932 216 -206 52 -195 48 -195
72 0 18 -2 19 -10 7 -8 -12 -10 -9 -10 11 0 22 -6 28 -32 33 -58 11 -63 12
-93 25 -16 8 -50 15 -74 16 -24 2 -47 9 -51 16 -12 18 -41 3 -33 -17 4 -12 3
-15 -5 -10 -7 4 -12 26 -13 49 l-1 42 -10 -45 c-22 -97 -106 -171 -198 -172
-50 0 -95 27 -132 82 -17 25 -27 36 -23 25 14 -39 11 -50 -15 -50 -20 0 -27 7
-35 33 -5 17 -16 33 -25 33 -27 2 -64 1 -95 -4 -16 -3 -33 -5 -37 -6 -5 0 -8
-8 -8 -16 0 -17 -35 -21 -45 -5 -10 17 -25 11 -35 -12 -5 -13 -9 -17 -9 -10
-1 18 -19 15 -24 -5 -3 -15 -6 -14 -15 7 -10 24 -11 24 -12 -10 0 -19 -5 -42
-10 -50 -7 -11 -10 3 -10 47 0 40 -4 63 -12 66 -10 3 -10 7 -1 19 32 38 -36
40 -109 2 -15 -8 -31 -15 -35 -15 -5 -1 -28 -7 -52 -15 -46 -13 -95 -11 -169
8 -54 14 -113 43 -105 52 4 3 -1 6 -9 6 -23 0 -107 39 -153 70 -22 15 -73 49
-113 75 -40 25 -76 54 -80 63 -7 19 -65 76 -99 99 -25 16 -31 43 -10 43 15 0
85 -36 153 -78 28 -18 56 -32 63 -32 6 0 22 -7 35 -15 18 -12 60 -17 162 -20
89 -3 140 -8 144 -16 10 -15 85 -3 105 17 7 8 16 10 19 5 4 -5 12 -8 19 -7 15
2 73 56 61 56 -5 0 -2 4 6 10 9 6 17 5 21 -2 12 -19 101 44 135 96 46 68 70
92 122 116 26 12 74 37 107 55 85 48 228 117 312 151 40 16 73 33 73 37 0 11
-5 16 -140 132 -191 164 -280 251 -280 271 0 8 3 14 8 14 4 0 50 -36 102 -80z
m3185 -16 c24 -37 11 -41 -15 -5 -12 17 -17 31 -12 31 5 0 17 -12 27 -26z
m-7185 -2 c0 -4 -54 -52 -120 -107 -66 -54 -116 -101 -110 -105 5 -3 13 -26
16 -51 4 -24 11 -53 17 -64 6 -11 10 -28 9 -37 -2 -9 6 -26 17 -37 12 -12 21
-31 21 -43 0 -17 -3 -19 -9 -9 -7 11 -10 9 -16 -8 -3 -11 -3 -25 0 -31 10 -15
35 -12 35 5 0 18 16 20 26 4 4 -7 -3 -19 -15 -29 l-23 -16 26 -17 c14 -10 26
-24 26 -33 0 -9 6 -14 13 -11 21 8 47 -13 47 -37 0 -30 32 -51 92 -60 48 -7
67 -19 48 -31 -22 -13 -8 -25 30 -25 29 0 38 -4 34 -14 -7 -18 12 -24 66 -19
25 2 51 3 58 3 6 0 20 -1 30 -1 9 0 42 0 72 1 87 3 130 -8 130 -34 0 -19 5
-21 49 -21 28 0 56 6 62 13 7 6 18 12 24 12 6 0 48 24 92 54 86 58 182 110
189 103 13 -12 -25 -61 -70 -89 -28 -18 -96 -73 -151 -122 -130 -114 -216
-179 -263 -195 -20 -8 -48 -18 -62 -24 -67 -28 -278 -19 -288 12 -2 6 -12 11
-22 11 -19 0 -231 126 -341 203 -37 26 -70 47 -74 47 -11 0 -307 206 -343 239
l-33 31 38 32 c21 18 67 60 103 93 59 56 194 167 387 317 40 32 89 66 110 77
39 21 73 27 73 13z m-933 -104 c-3 -7 -5 -2 -5 12 0 14 2 19 5 13 2 -7 2 -19
0 -25z m4745 -57 c128 -85 159 -114 141 -132 -4 -4 -38 -23 -75 -42 -52 -27
-219 -146 -248 -177 -5 -5 -164 -136 -192 -158 -15 -12 -24 -9 -65 19 -105 74
-243 193 -243 211 0 11 58 -14 102 -43 83 -56 157 -110 174 -126 12 -13 19
-14 22 -5 2 6 10 12 18 12 8 0 32 17 54 38 21 20 49 46 62 58 36 33 187 146
260 195 l67 45 -92 62 c-83 56 -157 116 -157 128 0 19 58 -9 172 -85z m3449
51 c9 -15 26 -44 38 -64 13 -21 21 -38 19 -38 -11 0 -47 38 -42 43 4 3 -5 20
-20 37 -14 17 -26 36 -26 41 0 18 15 9 31 -19z m-9053 -29 c-3 -16 -21 -19
-158 -23 l-155 -5 -3 -56 c-4 -76 17 -101 109 -131 69 -22 84 -40 37 -46 -49
-6 -134 36 -206 103 -39 36 -74 65 -79 65 -5 0 -19 -18 -31 -39 -13 -22 -36
-51 -53 -65 -43 -36 -72 -26 -143 51 -87 94 -83 94 -168 18 -47 -42 -82 -65
-98 -65 -16 0 -42 19 -82 60 -62 63 -68 77 -41 87 12 5 24 -4 42 -28 14 -19
39 -46 54 -61 l29 -28 71 65 c100 92 143 87 233 -22 25 -32 52 -58 60 -58 7 0
34 29 61 65 27 36 57 66 67 68 12 3 30 -8 47 -27 14 -17 29 -31 32 -31 2 0 7
19 11 41 13 82 6 79 197 79 157 0 170 -1 167 -17z m5327 -141 c80 -52 90 -63
70 -75 -18 -10 -54 9 -127 68 -103 81 -64 86 57 7z m3827 -104 c-2 -21 -8 -38
-14 -38 -5 0 -6 10 -2 22 3 12 7 42 7 67 0 38 1 41 6 16 3 -16 4 -46 3 -67z
m-7517 12 c-3 -5 -11 -10 -16 -10 -6 0 -7 5 -4 10 3 6 11 10 16 10 6 0 7 -4 4
-10z m7482 -47 c-3 -10 -5 -4 -5 12 0 17 2 24 5 18 2 -7 2 -21 0 -30z m-7320
11 c-3 -3 -12 -4 -19 -1 -8 3 -5 6 6 6 11 1 17 -2 13 -5z m83 -35 c0 -13 -24
-11 -45 4 -16 13 -15 14 13 9 18 -2 32 -8 32 -13z m7237 -41 c-3 -8 -6 -5 -6
6 -1 11 2 17 5 13 3 -3 4 -12 1 -19z m-9723 -27 c6 -10 36 -250 36 -288 0 -18
-6 -23 -25 -23 -26 0 -33 18 -14 37 7 7 4 46 -11 132 -12 67 -19 128 -16 136
6 17 22 20 30 6z m2591 -1 c3 -5 2 -10 -4 -10 -5 0 -13 5 -16 10 -3 6 -2 10 4
10 5 0 13 -4 16 -10z m-205 -50 c0 -5 -8 -10 -17 -10 -15 0 -16 2 -3 10 19 12
20 12 20 0z m-3350 -100 c0 -5 -5 -10 -11 -10 -5 0 -7 5 -4 10 3 6 8 10 11 10
2 0 4 -4 4 -10z m8538 -25 c11 -23 10 -24 -8 -13 -11 7 -20 18 -20 25 0 22 16
14 28 -12z m-8 -92 c0 -48 3 -64 10 -53 7 11 8 5 4 -20 -4 -19 -8 -37 -10 -39
-9 -10 -18 12 -20 47 -1 20 -5 51 -8 67 -6 34 1 65 15 65 5 0 9 -30 9 -67z
m17 0 c-3 -10 -5 -4 -5 12 0 17 2 24 5 18 2 -7 2 -21 0 -30z m110 0 c-3 -10
-5 -4 -5 12 0 17 2 24 5 18 2 -7 2 -21 0 -30z m0 -105 c-2 -13 -4 -3 -4 22 0
25 2 35 4 23 2 -13 2 -33 0 -45z m-7416 -22 c130 -44 235 -72 318 -85 127 -21
154 -32 134 -52 -16 -16 -231 24 -358 66 -27 9 -90 29 -140 45 -116 37 -159
55 -175 74 -22 28 17 19 221 -48z m7381 -18 c-8 -8 -9 -4 -5 13 4 13 8 18 11
10 2 -7 -1 -18 -6 -23z m-6282 -9 c-42 -35 -70 -53 -70 -42 1 11 82 73 95 73
6 0 -6 -14 -25 -31z m6120 15 c-19 -8 -46 -13 -60 -11 -23 4 -22 4 5 6 17 1
37 6 45 11 8 5 22 10 30 9 8 0 -1 -7 -20 -15z m180 -40 c-18 -21 -24 -10 -8
15 7 12 14 17 16 11 2 -6 -2 -17 -8 -26z m-267 19 l39 -6 -39 -13 c-49 -17
-53 -17 -28 3 18 14 18 15 2 9 -10 -3 -26 -6 -34 -6 -13 0 -13 -3 -3 -15 10
-12 10 -15 -3 -15 -9 0 -19 5 -22 10 -3 6 -18 10 -33 11 -21 1 -18 4 18 14 56
16 56 16 103 8z m-108 -43 c-27 -12 -43 -12 -25 0 8 5 22 9 30 9 10 0 8 -3 -5
-9z m-7658 -25 c92 -19 122 -30 136 -47 10 -13 15 -17 11 -9 -4 7 8 3 26 -10
25 -18 54 -67 121 -205 49 -100 89 -187 89 -193 0 -13 -181 -15 -245 -2 -51
10 -65 5 -65 -22 0 -16 3 -18 11 -10 19 19 84 -28 75 -54 -3 -6 5 -22 17 -36
32 -36 57 -85 57 -113 0 -14 5 -35 11 -46 8 -15 8 -22 -1 -28 -8 -5 -7 -9 4
-13 18 -7 35 -61 46 -152 4 -38 13 -71 18 -73 5 -1 8 -11 5 -20 -2 -10 8 -35
22 -56 17 -25 27 -53 27 -80 1 -23 3 -34 5 -25 5 21 45 39 90 39 19 0 74 7
122 15 47 8 217 36 376 61 160 25 344 54 410 65 66 10 192 30 280 44 411 66
538 76 634 50 67 -17 134 -52 81 -41 -118 23 -260 10 -530 -49 -8 -1 -43 -9
-78 -15 -35 -7 -58 -16 -52 -20 13 -8 -35 -20 -79 -20 -14 0 -33 -5 -41 -11
-11 -8 -7 -9 15 -4 17 3 62 7 100 9 39 2 89 9 113 15 48 13 67 6 86 -30 8 -16
21 -25 41 -26 17 0 45 -5 64 -9 24 -5 32 -4 27 4 -5 8 6 7 31 -2 25 -9 63 -12
110 -9 46 4 73 2 77 -6 4 -6 18 -11 31 -11 16 0 22 -5 21 -17 -4 -25 16 -53
37 -53 11 0 22 -12 28 -30 6 -16 15 -30 21 -30 5 0 7 -9 3 -19 -4 -13 9 -49
38 -103 24 -46 56 -123 71 -173 35 -114 43 -122 87 -99 19 9 57 34 84 54 94
68 135 79 320 87 171 6 211 14 83 15 -40 1 -77 5 -83 9 -5 4 -65 3 -133 -2
-68 -6 -128 -9 -134 -7 -6 2 -40 -27 -76 -64 -36 -37 -71 -68 -78 -68 -8 0
-15 19 -19 48 -10 76 -34 182 -57 255 l-22 67 22 46 c35 71 104 171 194 279
46 55 103 127 128 160 25 33 54 66 65 74 11 8 43 39 72 69 30 31 58 52 66 49
7 -3 39 -45 72 -93 32 -49 74 -102 93 -118 19 -16 47 -47 63 -68 l28 -39 27
30 c15 17 30 31 33 31 9 0 41 -93 41 -117 0 -24 -18 -43 -36 -36 -21 8 -98
-44 -111 -74 -10 -24 -24 -75 -63 -223 -5 -19 -9 -48 -9 -65 0 -18 9 4 23 56
25 94 52 152 96 208 17 20 39 47 50 61 13 16 8 -1 -14 -45 -19 -39 -39 -88
-44 -110 -11 -41 -25 -155 -15 -121 8 31 31 48 61 46 15 -1 29 -1 32 0 18 7
170 8 170 1 0 -4 33 -6 72 -4 71 4 105 -5 136 -35 8 -7 24 -9 40 -6 15 4 29 7
32 6 24 0 30 -4 24 -13 -5 -8 2 -10 21 -6 18 3 34 -1 43 -10 8 -8 21 -12 28
-9 8 3 20 -3 26 -14 7 -11 20 -20 30 -20 9 0 20 -5 23 -10 4 -6 10 -8 15 -5 4
3 6 -4 3 -15 -4 -16 0 -20 20 -20 13 0 30 -7 38 -16 8 -10 22 -14 40 -10 21 4
28 1 32 -14 3 -11 -2 -25 -10 -31 -12 -11 -11 -14 9 -25 15 -8 29 -9 41 -3 19
11 37 4 37 -14 0 -14 22 -29 72 -50 34 -14 35 -14 32 7 -1 11 -6 30 -10 41 -5
14 -1 12 15 -7 12 -15 19 -33 15 -39 -4 -7 -3 -9 4 -5 17 10 105 -85 195 -212
35 -49 48 -80 28 -68 -4 3 -5 -13 0 -37 4 -23 8 -193 9 -377 l1 -335 29 -104
c16 -57 33 -108 38 -113 14 -14 31 14 48 78 8 33 28 87 43 121 16 34 27 64 24
66 -8 9 -12 409 -5 567 7 142 9 157 30 178 12 12 22 19 22 16 0 -3 16 8 35 25
42 37 45 37 37 9 l-5 -21 22 22 c12 12 19 26 16 31 -4 6 1 7 11 3 13 -5 15 -3
9 7 -6 10 -4 12 8 7 8 -3 18 0 21 8 3 9 0 12 -10 8 -7 -3 -14 0 -14 6 0 6 4
11 9 11 5 0 22 11 38 24 15 13 37 25 48 28 12 2 19 10 17 21 -2 11 4 17 18 17
21 0 60 19 71 34 4 5 14 6 24 3 10 -4 14 -3 10 4 -4 6 2 13 13 16 14 3 19 10
15 21 -4 10 -2 13 6 8 7 -5 26 -2 42 5 17 6 26 15 20 19 -6 3 7 17 30 31 22
13 46 29 52 35 19 17 40 21 68 14 21 -6 25 -4 25 12 -1 22 8 28 64 47 54 19
70 22 133 31 32 4 81 17 110 28 152 59 517 104 579 71 13 -7 16 -17 12 -34 -4
-15 -2 -25 5 -25 6 0 11 -6 11 -14 0 -14 67 -78 150 -143 30 -24 75 -58 99
-78 24 -19 48 -32 54 -28 6 4 2 10 -10 14 -12 4 -59 43 -105 86 -46 43 -99 91
-118 106 l-35 28 -3 266 c-2 146 0 269 5 274 5 5 43 0 89 -12 114 -30 108 -31
105 23 l-2 46 78 4 c48 2 88 -1 104 -9 16 -7 91 -13 202 -15 200 -3 188 -9
166 78 -9 34 -9 47 1 59 21 25 27 18 39 -47 20 -106 39 -145 78 -163 26 -13
34 -22 30 -36 -3 -10 -2 -19 3 -19 4 0 10 -11 14 -23 4 -18 13 -24 33 -25 48
-2 503 -61 828 -107 171 -24 357 -47 414 -51 100 -7 104 -6 97 12 -54 131 -68
183 -67 250 0 39 7 90 14 112 l14 41 -31 14 c-52 23 -85 35 -216 73 -122 36
-176 51 -410 113 -243 65 -432 125 -437 138 -3 7 -3 19 0 27 6 16 -8 19 362
-82 121 -33 302 -81 403 -106 100 -26 212 -57 248 -71 69 -26 110 -32 99 -15
-18 28 52 86 203 166 130 70 209 124 291 197 40 37 77 67 82 67 16 0 9 -78
-11 -130 -29 -73 -37 -80 -77 -64 -18 8 -43 14 -56 14 -29 0 -101 -69 -129
-125 -11 -22 -42 -71 -67 -110 -26 -38 -51 -75 -55 -82 -10 -18 36 -38 155
-68 120 -30 280 -81 324 -103 39 -19 85 -62 85 -80 0 -8 -23 -39 -50 -69 -56
-62 -59 -79 -7 -39 38 29 57 33 57 11 0 -21 -73 -64 -137 -81 -67 -17 -60 -18
-73 5 -9 17 -5 22 24 36 18 9 45 33 60 53 l26 37 -22 5 c-12 3 -23 11 -25 17
-6 16 32 34 54 27 14 -5 12 -1 -7 19 -20 21 -59 36 -195 71 -261 69 -313 84
-332 94 -10 5 -30 12 -44 15 -25 6 -26 4 -42 -62 -21 -86 -21 -140 -2 -216 26
-97 35 -110 80 -112 22 -1 45 -2 51 -2 6 -1 10 -9 10 -20 -2 -31 202 -249 580
-621 341 -335 460 -446 557 -523 48 -38 87 -72 87 -76 0 -4 29 -29 65 -56 36
-27 65 -55 65 -62 0 -8 -5 -11 -10 -8 -16 10 -391 66 -540 80 -120 12 -533 75
-805 124 -148 27 -315 56 -370 65 -644 107 -867 136 -1043 134 -112 -2 -141
-12 -62 -21 28 -3 58 -11 68 -17 13 -8 7 -9 -23 -3 -22 4 -152 7 -290 7 -552
-3 -984 -91 -1514 -308 -260 -107 -569 -282 -689 -390 -29 -27 -75 -81 -103
-121 -37 -55 -58 -75 -77 -78 -15 -2 2 -4 38 -4 98 1 253 -14 268 -25 15 -13
16 -45 1 -50 -6 -2 -44 2 -83 9 -155 29 -514 27 -667 -4 -28 -5 -29 -4 -29 29
0 31 -10 45 -75 106 -45 44 -101 85 -142 105 -253 127 -736 265 -1126 322
-334 49 -799 19 -1552 -99 -49 -8 -133 -20 -185 -26 -80 -10 -257 -34 -800
-110 -41 -6 -192 -29 -335 -50 -143 -22 -332 -49 -420 -60 -88 -11 -254 -34
-369 -51 -115 -16 -214 -28 -220 -26 -19 7 122 44 249 66 66 11 242 39 390 61
149 22 313 47 365 55 52 8 169 26 260 40 91 13 235 35 320 49 85 13 196 29
245 36 50 7 145 21 213 31 67 10 137 19 155 19 17 0 68 7 112 15 44 8 195 31
335 50 786 107 964 107 1505 0 314 -62 743 -207 892 -301 57 -36 179 -158 189
-188 6 -17 13 -18 73 -12 36 3 105 9 152 12 l85 7 -20 21 c-12 12 -31 35 -42
51 l-22 30 1 -37 c1 -42 0 -45 -27 -50 -15 -2 -21 7 -30 43 -15 56 -85 156
-158 226 -149 140 -551 353 -808 427 -151 44 -513 117 -690 140 -334 44 -572
30 -1090 -61 -80 -14 -181 -31 -225 -38 -44 -7 -210 -35 -370 -63 -159 -28
-378 -62 -485 -77 -107 -14 -247 -35 -310 -45 -410 -70 -1230 -176 -1253 -163
-17 10 14 42 40 41 58 -1 387 34 588 63 374 54 398 58 585 88 102 17 318 48
480 71 427 59 764 109 850 125 101 19 504 83 663 104 70 10 130 21 135 25 10
11 -322 -2 -498 -20 -312 -30 -531 -60 -925 -129 -77 -13 -203 -33 -280 -44
-77 -12 -216 -33 -310 -47 -228 -34 -415 -60 -620 -84 -207 -24 -415 -55 -554
-81 -57 -11 -106 -17 -109 -14 -9 9 29 44 46 43 25 -1 146 13 154 18 8 5 90
18 333 54 72 10 171 26 220 34 50 8 115 17 145 20 30 3 98 12 150 20 52 8 115
18 140 21 25 4 101 17 170 30 69 13 186 33 260 45 74 11 185 30 245 41 61 11
124 22 140 25 44 8 303 45 350 50 60 7 91 12 185 29 95 18 138 24 190 29 19 2
64 8 100 14 72 12 206 22 350 27 68 2 101 -1 117 -11 12 -7 23 -9 25 -4 2 5
24 11 51 14 38 3 49 0 57 -13 7 -14 19 -17 69 -13 44 3 61 1 61 -8 0 -8 12
-11 35 -8 19 2 35 1 35 -3 0 -4 18 -5 41 -2 25 4 44 2 48 -5 4 -6 40 -13 81
-14 41 -2 78 -7 82 -12 3 -5 25 -9 48 -8 22 1 56 -4 74 -12 18 -7 66 -19 107
-25 41 -7 88 -16 104 -21 17 -5 56 -14 88 -22 31 -7 57 -16 57 -20 0 -5 13 -8
28 -8 15 0 33 -5 40 -12 11 -11 31 -20 122 -52 25 -9 52 -20 60 -23 8 -4 24
-8 35 -9 12 -1 68 -27 125 -57 58 -30 107 -54 110 -54 3 0 25 -13 49 -29 23
-16 55 -36 70 -44 45 -26 155 -102 179 -123 26 -24 29 -16 5 14 -21 24 -166
133 -243 181 -70 45 -209 118 -280 147 -30 13 -74 32 -97 42 -23 11 -49 19
-57 19 -8 0 -17 4 -20 9 -3 4 -19 11 -36 14 -16 4 -30 12 -30 18 0 14 23 8
134 -32 154 -56 402 -188 569 -304 211 -146 213 -148 132 -71 -75 71 -281 216
-307 216 -9 0 -21 7 -28 15 -23 28 -234 122 -411 184 -165 58 -352 108 -529
141 -268 50 -328 55 -615 54 -290 -1 -341 -5 -750 -69 -126 -20 -275 -43 -330
-51 -55 -8 -174 -27 -265 -44 -91 -16 -196 -34 -235 -40 -38 -5 -108 -17 -155
-25 -109 -20 -779 -121 -890 -135 -188 -23 -528 -71 -580 -82 -30 -5 -66 -17
-80 -26 -61 -38 38 52 113 103 72 48 235 193 492 435 135 127 445 443 445 453
0 4 -15 22 -32 40 -53 53 -206 223 -304 337 -111 129 -167 180 -197 181 -12 0
-143 1 -292 2 -199 1 -276 5 -292 15 l-23 13 0 320 0 320 26 26 25 25 287 -5
c352 -6 352 -6 353 -60 0 -28 1 -29 9 -11 9 23 49 38 74 28 11 -4 16 -1 16 11
0 9 4 14 9 11 5 -3 12 -43 16 -88 l7 -83 61 -57 c54 -51 109 -79 124 -64 3 3
-22 54 -54 113 -56 100 -113 228 -113 251 0 6 -9 31 -20 56 -10 25 -15 46 -10
46 6 0 63 -11 127 -25z m7822 5 c4 0 7 -9 7 -20 0 -21 -21 -26 -45 -11 -19 12
-6 45 15 37 9 -3 19 -6 23 -6z m-6209 -24 c0 -3 -4 -8 -10 -11 -5 -3 -10 -1
-10 4 0 6 5 11 10 11 6 0 10 -2 10 -4z m2293 -24 c-3 -9 -13 -25 -20 -34 -8
-9 -12 -21 -9 -27 9 -14 -14 -25 -27 -12 -6 6 -15 11 -19 11 -15 0 -8 -29 11
-47 21 -20 40 -113 23 -113 -6 0 -14 5 -17 10 -4 6 -11 8 -16 5 -5 -4 -12 1
-15 10 -5 12 -9 13 -20 4 -24 -20 -16 -59 20 -95 37 -37 54 -42 62 -19 4 8 12
15 20 15 8 0 14 7 14 16 0 8 4 13 9 9 5 -3 11 5 13 17 2 13 10 23 18 24 45 3
47 4 45 34 -1 22 3 31 19 36 27 9 65 36 66 48 0 4 -15 6 -32 2 -88 -16 -145
-16 -158 -1 -12 15 -4 21 23 16 4 -1 3 7 -3 18 -12 24 -13 34 -1 27 8 -5 26
21 23 35 -2 11 37 29 43 19 3 -6 -2 -10 -12 -11 -10 0 3 -7 29 -15 53 -16 123
-74 143 -119 37 -83 22 -157 -45 -224 l-47 -47 -12 -171 c-6 -94 -11 -221 -11
-282 0 -102 -2 -111 -19 -111 -38 0 -44 24 -37 138 7 114 33 388 38 412 2 11
-11 15 -57 16 -78 3 -143 32 -187 83 -71 83 -68 172 8 267 51 64 155 106 137
56z m-2353 -32 c0 -6 -8 -14 -17 -17 -25 -10 -50 -38 -45 -51 2 -7 -6 -12 -17
-12 -33 0 -25 16 25 55 51 38 54 40 54 25z m7445 -30 c3 -5 1 -10 -4 -10 -6 0
-11 5 -11 10 0 6 2 10 4 10 3 0 8 -4 11 -10z m235 -20 c0 -5 -5 -10 -11 -10
-5 0 -7 5 -4 10 3 6 8 10 11 10 2 0 4 -4 4 -10z m-1992 -144 c2 -3 5 -20 5
-38 l2 -33 -234 -5 c-151 -3 -235 -1 -237 5 -2 6 -5 24 -6 40 l-3 30 175 6
c169 6 289 4 298 -5z m2115 -60 c4 4 23 -6 44 -22 21 -16 41 -28 46 -26 4 1 7
-4 7 -12 0 -7 7 -19 15 -26 9 -7 14 -19 11 -26 -3 -7 -1 -16 4 -19 6 -4 10 4
10 18 0 21 46 77 63 77 4 0 7 -10 7 -23 0 -23 -24 -64 -48 -83 -12 -9 -12 -15
2 -43 9 -17 14 -36 11 -42 -4 -5 -1 -8 6 -7 7 2 15 -6 17 -17 2 -11 10 -24 18
-28 8 -4 14 -14 14 -21 0 -7 9 -21 20 -31 11 -10 20 -24 20 -31 0 -7 6 -15 13
-18 10 -5 10 -7 0 -12 -18 -8 -16 -35 3 -62 8 -12 16 -47 17 -79 l2 -58 57
-13 c51 -13 57 -17 58 -40 0 -15 1 -38 3 -52 3 -38 -17 -36 -23 2 -4 24 -10
33 -23 32 -9 -1 -17 5 -17 13 0 28 -26 -4 -45 -55 -17 -44 -30 -61 -47 -62
-12 0 -9 41 7 94 19 64 20 93 2 77 -8 -6 -16 -8 -19 -5 -3 3 -9 1 -12 -5 -4
-6 1 -8 12 -6 15 3 18 -2 14 -21 -6 -33 -20 -39 -43 -18 -10 9 -19 12 -19 6 0
-18 22 -62 30 -57 4 2 6 -6 5 -18 -2 -28 -43 -36 -61 -12 -12 17 -8 58 6 50
12 -7 -11 88 -26 110 -16 22 -19 59 -5 51 5 -3 12 2 15 11 14 34 -67 89 -176
119 -32 8 -58 19 -58 23 0 4 14 27 31 51 38 53 45 98 29 186 -11 55 -10 68 1
75 11 7 11 9 -2 9 -17 0 -29 19 -29 47 0 12 3 13 13 4 8 -6 17 -8 20 -5z
m-2883 -61 c0 -22 -33 -47 -237 -182 -242 -159 -349 -221 -361 -208 -4 4 16
28 44 53 73 68 518 362 546 362 5 0 8 -11 8 -25z m-1202 -102 c62 -29 127
-102 147 -161 19 -58 19 -57 -11 -66 -19 -6 -23 -2 -29 31 -22 121 -125 200
-223 173 -42 -11 -61 -28 -86 -77 -19 -39 -46 -44 -46 -9 0 34 40 88 80 108
45 23 122 23 168 1z m3983 -53 c37 -20 15 -80 -30 -80 -12 0 -26 64 -16 79 8
14 21 14 46 1z m391 -52 c-15 -15 -26 -4 -18 18 5 13 9 15 18 6 9 -9 9 -15 0
-24z m-5142 -54 c0 -13 7 -15 39 -9 47 8 59 -6 37 -40 -18 -27 -21 -55 -7 -55
5 0 21 14 34 30 25 29 47 39 47 21 0 -5 -7 -14 -16 -21 -24 -21 -14 -63 19
-74 21 -8 34 -6 58 8 24 14 33 15 39 6 5 -8 23 -10 62 -5 53 7 55 6 81 -28 15
-20 34 -62 42 -93 18 -69 18 -74 4 -74 -11 0 -40 -25 -39 -35 0 -3 0 -15 -1
-27 -1 -21 -2 -20 -11 5 l-10 28 -29 -33 c-22 -25 -29 -43 -29 -75 0 -23 -4
-44 -8 -47 -16 -9 -232 -15 -237 -5 -9 14 -16 49 -22 107 -4 35 -10 52 -19 52
-8 0 -20 11 -26 25 -13 28 -19 30 -36 13 -9 -9 -12 -8 -12 7 0 18 0 18 -15 -1
-13 -17 -14 -14 -15 43 0 34 -6 82 -14 105 -30 91 -27 128 8 115 11 -5 16 -19
16 -52 0 -43 1 -45 28 -45 15 0 33 5 40 12 19 19 15 66 -8 78 -14 8 -20 21
-20 45 0 19 5 35 10 35 6 0 10 -7 10 -16z m4635 -4 c3 -5 8 -25 10 -45 6 -40
-18 -51 -29 -12 -13 49 -1 89 19 57z m625 -80 c0 -24 -25 -54 -38 -46 -15 9
-15 51 -1 78 11 21 12 21 25 3 8 -10 14 -26 14 -35z m-675 30 c3 -5 1 -10 -4
-10 -6 0 -11 5 -11 10 0 6 2 10 4 10 3 0 8 -4 11 -10z m-257 -108 c18 -13 32
-26 32 -29 0 -3 -12 -19 -26 -37 -28 -32 -71 -42 -106 -24 -21 10 -25 68 -7
96 16 25 67 22 107 -6z m601 4 c8 -10 9 -16 1 -21 -13 -8 -30 3 -30 21 0 18
14 18 29 0z m411 -32 c0 -8 7 -17 15 -20 26 -11 15 -104 -13 -104 -12 0 -14 9
-9 50 3 27 2 52 -4 55 -5 4 -9 15 -9 26 0 11 5 17 10 14 6 -3 10 -13 10 -21z
m-680 -115 c0 -10 -4 -21 -10 -24 -5 -3 -10 -2 -10 4 0 5 -7 17 -17 26 -13 14
-14 18 -2 25 17 11 39 -6 39 -31z m70 11 c0 -5 -4 -10 -10 -10 -5 0 -10 5 -10
10 0 6 5 10 10 10 6 0 10 -4 10 -10z m-354 -42 c-9 -5 -24 -7 -34 -5 -14 3
-12 6 8 14 29 12 50 5 26 -9z m-3792 -16 c3 -5 -11 -23 -30 -41 -27 -23 -34
-36 -29 -49 5 -9 10 -32 13 -49 3 -28 1 -33 -17 -34 -12 -1 -27 -2 -33 -3 -10
-1 -13 22 -13 85 0 80 1 86 20 84 11 0 29 2 40 6 27 10 43 11 49 1z m-164
-115 c0 -18 -2 -19 -10 -7 -13 20 -13 43 0 35 6 -3 10 -16 10 -28z m-2590 -69
c0 -5 -4 -8 -10 -8 -5 0 -10 10 -10 23 0 18 2 19 10 7 5 -8 10 -18 10 -22z
m7398 15 c13 -26 4 -43 -24 -43 -18 0 -24 5 -24 23 0 40 32 52 48 20z m95 -89
c115 -5 166 -11 164 -18 -4 -13 -436 -21 -449 -8 -5 5 -6 17 -2 26 6 16 15 17
63 12 31 -3 132 -9 224 -12z m-6260 -1 c-7 -2 -19 -2 -25 0 -7 3 -2 5 12 5 14
0 19 -2 13 -5z m362 -31 c-3 -3 -11 0 -18 7 -9 10 -8 11 6 5 10 -3 15 -9 12
-12z m70 -32 c39 -26 25 -26 -17 0 -18 11 -28 20 -23 20 6 0 24 -9 40 -20z
m5928 -30 c56 0 67 -3 67 -17 0 -15 -20 -16 -227 -9 -125 4 -229 9 -231 11 -2
2 -1 9 4 16 5 9 45 10 163 6 86 -4 186 -7 224 -7z m-573 -70 c0 -5 -10 -10
-22 -9 -22 0 -22 1 -3 9 11 5 21 9 23 9 1 1 2 -3 2 -9z m640 -15 c0 -13 -27
-15 -184 -15 -190 0 -276 7 -276 21 0 5 104 9 230 9 198 0 230 -2 230 -15z
m-5798 -9 c15 -11 14 -13 -15 -13 -18 0 -26 2 -19 5 6 2 10 8 6 13 -8 13 8 11
28 -5z m91 -92 c-6 -16 -23 -19 -23 -4 0 6 5 10 12 10 6 0 3 10 -8 23 l-19 22
22 -18 c12 -11 19 -25 16 -33z m5684 30 c13 -4 20 -10 17 -15 -5 -9 -452 -11
-467 -2 -4 2 -5 9 -2 14 7 10 416 13 452 3z m-117 -74 c-37 -12 -320 -12 -320
0 0 6 64 10 173 9 101 -1 162 -4 147 -9z m-2280 -521 c30 -5 120 -20 200 -34
80 -14 192 -34 250 -45 58 -10 157 -26 220 -35 63 -9 205 -31 315 -50 110 -18
243 -40 295 -49 52 -9 160 -27 240 -41 80 -14 219 -37 310 -50 325 -49 366
-55 410 -65 65 -15 309 -50 348 -50 20 0 35 -6 39 -15 11 -31 69 -37 -602 59
-367 53 -429 63 -685 111 -107 20 -231 43 -275 50 -44 8 -123 23 -175 34 -52
10 -131 24 -175 31 -44 6 -213 38 -375 70 -162 32 -331 64 -375 71 -44 6 -87
15 -95 20 -17 9 46 3 130 -12z m40 -159 c41 -4 167 -18 280 -30 240 -25 1017
-136 1080 -155 22 -6 229 -42 376 -64 266 -41 444 -71 629 -105 105 -20 202
-36 217 -36 26 0 46 -15 35 -27 -3 -3 -68 4 -144 16 -421 62 -632 95 -843 132
-804 139 -872 150 -1245 194 -285 34 -599 76 -604 81 -7 7 141 3 219 -6z
m-6015 -41 c-16 -4 -73 -15 -125 -23 -52 -8 -205 -33 -340 -56 -135 -23 -335
-54 -445 -70 -315 -46 -536 -79 -590 -90 -125 -24 -507 -80 -551 -80 -97 0
-26 23 158 51 101 15 224 35 273 43 190 34 371 62 795 126 113 17 288 44 390
60 237 37 320 47 400 48 53 0 59 -1 35 -9z m970 -8 c-6 -5 -140 -23 -300 -40
-371 -39 -761 -85 -940 -110 -77 -11 -257 -36 -400 -56 -321 -44 -713 -103
-1031 -155 -133 -22 -283 -44 -335 -50 -52 -6 -144 -20 -206 -30 -131 -23
-373 -53 -378 -48 -2 2 0 10 4 17 10 15 118 32 326 51 72 7 270 36 440 66 386
67 544 92 905 144 157 23 341 50 410 61 155 24 718 96 820 104 41 3 145 12
230 20 300 29 336 32 400 34 39 0 60 -3 55 -8z m5190 -57 c469 -57 553 -69
780 -109 105 -18 294 -50 420 -70 127 -20 286 -48 355 -62 69 -13 145 -29 170
-34 25 -5 153 -27 285 -50 132 -23 272 -47 310 -54 39 -7 96 -16 128 -20 31
-3 57 -11 57 -17 0 -26 -449 37 -964 136 -155 30 -353 66 -441 81 -88 15 -221
38 -295 51 -180 33 -359 60 -565 84 -93 12 -264 34 -380 50 -115 16 -259 32
-320 35 -60 3 -135 9 -165 12 l-55 7 45 7 c79 13 266 -1 635 -47z m-519 -44
c195 -14 563 -58 724 -85 84 -14 190 -30 530 -80 96 -14 202 -30 235 -34 121
-19 825 -146 1250 -226 72 -14 137 -25 145 -25 8 -1 29 -7 45 -15 56 -27 -129
-7 -505 56 -486 81 -1059 173 -1275 204 -99 14 -247 37 -330 50 -640 101
-1077 129 -1425 90 -158 -18 -639 -106 -760 -139 -30 -8 -80 -22 -111 -31
-122 -33 -329 -112 -484 -185 -59 -28 -110 -50 -114 -50 -4 0 -18 -12 -32 -27
-21 -23 -22 -25 -4 -18 55 21 122 29 405 45 101 6 206 15 232 20 49 10 598 19
1283 23 462 2 1104 -12 1545 -33 118 -5 312 -15 430 -20 118 -6 352 -15 520
-20 168 -5 339 -12 380 -16 41 -3 171 -9 287 -13 180 -6 216 -9 230 -23 11
-12 18 -40 21 -97 4 -72 2 -86 -22 -134 -27 -57 -74 -100 -146 -137 -34 -18
-65 -24 -135 -26 -60 -2 -82 -1 -65 5 15 6 19 9 9 10 -9 1 -20 8 -23 17 -5 13
-3 14 6 7 16 -12 45 -10 82 6 15 6 39 12 51 13 15 2 21 7 17 16 -4 12 -2 12
16 1 12 -7 25 -10 29 -6 4 5 1 12 -7 18 -10 6 -4 7 20 4 27 -4 30 -3 15 4 -15
7 -16 10 -4 10 12 1 15 11 13 49 -4 65 12 112 38 112 13 0 18 5 15 14 -3 8 1
20 9 26 8 7 14 9 14 5 0 -5 3 -6 6 -3 3 4 1 16 -6 27 -12 23 -1 28 19 9 11
-11 13 -10 9 2 -4 13 -73 16 -504 22 -274 4 -744 13 -1044 20 -562 13 -1791
17 -3038 8 -666 -5 -714 -4 -723 12 -8 14 -15 15 -35 8 -73 -28 -88 10 -16 41
26 12 70 32 97 47 114 59 254 128 281 139 257 107 434 159 749 222 409 81 728
106 1051 81z m-7756 -210 c0 -5 -3 -10 -8 -10 -4 0 -70 -9 -147 -20 -77 -10
-182 -22 -233 -26 -78 -6 -92 -5 -87 8 4 9 17 13 38 11 18 -2 113 7 212 21
211 28 225 29 225 16z m3430 -224 c707 -18 1053 -33 1144 -52 66 -13 116 -36
116 -52 0 -4 -654 -8 -1452 -7 -870 0 -1666 -5 -1983 -12 -291 -7 -831 -16
-1200 -19 -680 -7 -695 -8 -695 -43 0 -6 10 -13 23 -15 55 -12 59 -15 19 -13
-36 2 -42 0 -42 -18 0 -15 3 -16 9 -7 6 10 10 8 14 -10 10 -34 7 -57 -3 -33
-8 18 -9 18 -9 2 -1 -10 4 -27 9 -38 8 -15 8 -19 -2 -17 -7 2 -18 19 -25 38
l-12 35 6 -40 c9 -65 48 -125 71 -111 6 3 9 -2 8 -12 -1 -17 56 -52 106 -65
12 -4 19 -9 15 -13 -13 -13 -101 29 -145 70 -24 22 -52 56 -61 76 -35 69 -34
191 1 227 8 7 32 16 54 20 21 3 45 13 53 22 13 15 13 15 8 -1 -6 -16 2 -18 71
-18 42 0 129 5 192 10 181 15 882 44 1740 71 190 7 365 13 390 15 25 2 146 6
270 9 123 4 225 7 227 8 4 4 872 -1 1083 -7z m-3992 -163 c-10 -2 -26 -2 -35
0 -10 3 -2 5 17 5 19 0 27 -2 18 -5z m79 1 c-3 -3 -12 -4 -19 -1 -8 3 -5 6 6
6 11 1 17 -2 13 -5z m6132 -118 c-9 -8 -10 -7 -5 7 3 10 7 26 7 35 1 9 4 6 6
-7 3 -13 -1 -28 -8 -35z m-44 -56 c-16 -16 -31 -28 -33 -25 -5 5 52 64 57 59
3 -2 -8 -18 -24 -34z m5170 20 c5 -8 11 -7 21 1 11 9 14 8 14 -5 0 -10 -4 -15
-9 -11 -5 3 -12 1 -16 -5 -10 -16 -22 -12 -28 10 -5 21 7 28 18 10z m-6051
-39 c-6 -6 -34 20 -34 32 0 6 8 2 19 -9 10 -10 17 -21 15 -23z m-5339 -1 c3
-5 1 -10 -4 -10 -6 0 -11 5 -11 10 0 6 2 10 4 10 3 0 8 -4 11 -10z m5313 -12
c-2 -6 -10 -14 -16 -16 -7 -2 -10 2 -6 12 7 18 28 22 22 4z m910 -8 c-7 -11
-16 -20 -20 -20 -11 0 -10 9 5 25 18 21 29 18 15 -5z m-40 -41 c3 -11 1 -11
-7 1 -8 12 -11 6 -11 -26 0 -27 6 -47 16 -55 15 -12 16 -11 10 8 -7 23 3 36
19 25 24 -17 -7 -60 -38 -53 -5 1 -5 -3 -2 -9 4 -7 -2 -14 -14 -17 -12 -3 -21
-9 -21 -14 0 -5 -9 -9 -20 -9 -11 0 -20 -3 -20 -8 0 -12 -59 -34 -76 -28 -8 3
-13 2 -10 -3 3 -4 -24 -18 -61 -30 -56 -19 -87 -22 -205 -20 -85 0 -160 7
-195 16 -67 17 -173 69 -173 84 0 5 -5 7 -10 4 -16 -10 -25 26 -9 37 11 8 10
9 -3 4 -10 -3 -20 -1 -24 5 -3 6 -12 8 -18 6 -7 -3 -28 -2 -47 3 -27 6 -19 7
36 7 39 0 76 -5 83 -10 8 -7 12 -5 12 7 0 9 5 16 10 16 17 0 11 18 -7 24 -10
3 -1 4 19 3 20 -2 34 1 32 5 -3 4 -11 8 -18 8 -8 0 -19 7 -26 15 -17 20 -15
20 66 -20 39 -18 102 -39 140 -45 109 -18 115 -20 109 -30 -3 -6 6 -10 22 -11
56 -2 98 3 101 12 5 13 50 11 54 -2 2 -5 15 -12 28 -14 14 -2 37 -7 53 -11 18
-4 27 -2 27 6 0 7 8 10 20 7 19 -5 19 -4 2 19 -9 13 -22 24 -29 24 -6 0 -14 4
-17 9 -3 4 17 8 44 7 27 -1 48 2 47 8 -1 5 6 12 16 14 15 3 23 -18 18 -50 0
-5 10 -8 23 -8 18 0 23 5 21 23 -1 12 -3 28 -4 35 0 8 -6 10 -13 6 -7 -4 -5 2
5 13 19 22 14 34 -11 26 -14 -4 -14 -3 -3 5 17 12 54 0 59 -19z m-6113 -9 c3
-5 1 -10 -4 -10 -6 0 -11 5 -11 10 0 6 2 10 4 10 3 0 8 -4 11 -10z m9195 -27
c8 -13 13 -14 16 -5 8 18 84 16 84 -3 0 -9 9 -15 23 -16 22 0 22 0 -2 -10 -14
-5 -72 -7 -130 -5 -76 4 -102 3 -91 -5 11 -8 5 -9 -25 -5 -22 3 -49 6 -60 6
-16 0 -15 3 9 15 35 19 36 19 37 -2 0 -12 4 -8 11 10 11 30 27 34 59 15 17
-11 22 -10 30 5 6 9 14 17 19 17 5 0 14 -8 20 -17z m-7330 -13 c0 -5 12 -10
28 -10 15 -1 50 -7 77 -14 46 -13 36 -14 -140 -13 -187 1 -192 5 -32 23 26 3
47 10 47 15 0 5 5 9 10 9 6 0 10 -4 10 -10z m1135 -10 c3 -5 0 -11 -7 -11 -7
-1 1 -5 17 -9 40 -10 -55 -10 -185 0 l-95 7 107 1 c59 1 110 7 113 12 3 6 15
10 25 10 10 0 22 -4 25 -10z m855 1 c0 -5 8 -12 18 -14 9 -3 -17 -5 -59 -6
-42 0 -105 -4 -140 -7 -35 -4 -61 -3 -57 1 4 5 33 9 64 11 31 1 61 7 67 13 13
13 107 15 107 2z m6314 0 c8 -13 86 -13 86 0 0 7 3 9 6 6 4 -4 1 -13 -5 -21
-9 -11 -40 -15 -127 -15 -62 -1 -114 3 -114 8 0 4 -22 7 -50 5 -27 -1 -50 2
-50 6 0 14 246 25 254 11z m181 -20 c-6 -5 -25 10 -25 20 0 5 6 4 14 -3 8 -7
12 -15 11 -17z m-10055 3 c0 -2 -7 -4 -15 -4 -8 0 -15 4 -15 10 0 5 7 7 15 4
8 -4 15 -8 15 -10z m9433 9 c-29 -2 -77 -2 -105 0 -29 2 -6 3 52 3 58 0 81 -1
53 -3z m147 3 c0 -2 -7 -7 -16 -10 -8 -3 -12 -2 -9 4 6 10 25 14 25 6z m-9303
-12 c-3 -3 -12 -4 -19 -1 -8 3 -5 6 6 6 11 1 17 -2 13 -5z m872 -10 c2 -2 -27
-4 -65 -3 -48 0 -63 3 -49 9 18 8 104 3 114 -6z m809 9 c-16 -2 -40 -2 -55 0
-16 2 -3 4 27 4 30 0 43 -2 28 -4z m2639 1 c-3 -3 -12 -4 -19 -1 -8 3 -5 6 6
6 11 1 17 -2 13 -5z m56 -1 c-7 -2 -19 -2 -25 0 -7 3 -2 5 12 5 14 0 19 -2 13
-5z m187 3 c0 -9 -40 -13 -46 -5 -3 5 6 9 20 9 14 0 26 -2 26 -4z m1953 -3
c-7 -2 -19 -2 -25 0 -7 3 -2 5 12 5 14 0 19 -2 13 -5z m3557 -3 c-20 -13 -40
-13 -40 0 0 6 12 10 28 10 21 0 24 -2 12 -10z m298 3 c-10 -2 -26 -2 -35 0
-10 3 -2 5 17 5 19 0 27 -2 18 -5z m65 0 c-7 -2 -19 -2 -25 0 -7 3 -2 5 12 5
14 0 19 -2 13 -5z m107 -8 c0 -8 -8 -15 -18 -15 -10 0 -19 7 -19 15 0 8 9 15
19 15 10 0 18 -7 18 -15z m-9633 -1 c-3 -3 -12 -4 -19 -1 -8 3 -5 6 6 6 11 1
17 -2 13 -5z m3200 0 c-3 -3 -12 -4 -19 -1 -8 3 -5 6 6 6 11 1 17 -2 13 -5z
m1920 0 c-3 -3 -12 -4 -19 -1 -8 3 -5 6 6 6 11 1 17 -2 13 -5z m-6439 -11
c-10 -2 -26 -2 -35 0 -10 3 -2 5 17 5 19 0 27 -2 18 -5z m5575 0 c-13 -2 -33
-2 -45 0 -13 2 -3 4 22 4 25 0 35 -2 23 -4z m-473 -13 c0 -5 -2 -10 -4 -10 -3
0 -8 5 -11 10 -3 6 -1 10 4 10 6 0 11 -4 11 -10z m35 -250 c-3 -5 -14 -10 -24
-10 -10 0 -67 -15 -127 -34 -60 -19 -190 -58 -289 -86 -387 -110 -482 -131
-688 -150 -165 -16 -678 -158 -1087 -301 -96 -33 -233 -81 -305 -106 -164 -56
-431 -165 -695 -283 -512 -229 -593 -265 -720 -315 -351 -138 -506 -157 -622
-77 -42 30 -57 48 -73 90 -15 38 -25 52 -40 52 -36 0 -164 42 -169 56 -6 16
22 47 35 39 5 -4 6 2 2 12 -3 10 -3 15 1 11 4 -3 24 11 43 33 54 60 81 48 85
-38 4 -66 15 -58 23 15 9 81 44 269 60 322 8 25 28 95 45 155 32 109 129 360
137 352 2 -3 -6 -29 -18 -58 -43 -107 -110 -325 -121 -394 -6 -41 -8 -99 -4
-138 7 -63 17 -80 31 -57 11 18 28 11 22 -9 -3 -12 1 -22 10 -25 13 -5 13 -9
2 -23 -12 -14 -11 -15 10 -8 17 5 22 4 19 -6 -3 -8 -14 -15 -26 -17 -12 -2
-22 -7 -22 -11 0 -17 27 -30 49 -24 20 5 22 3 17 -14 -6 -17 -1 -22 28 -27 38
-7 70 -1 206 42 170 54 215 71 212 82 -1 6 2 9 8 5 14 -9 82 14 75 26 -4 5 1
6 9 3 8 -3 34 4 59 15 25 12 52 21 59 21 7 0 101 32 208 71 107 38 236 83 285
98 50 16 158 50 240 76 83 26 191 58 240 70 50 13 187 48 305 79 118 31 274
71 345 90 72 18 229 57 350 86 121 28 283 67 360 86 141 33 254 56 465 94 63
11 176 31 250 44 74 14 196 35 270 46 74 12 167 28 205 35 86 16 269 19 260 5z
m1159 -136 c4 -10 -37 -75 -107 -172 -159 -219 -235 -332 -318 -474 -39 -68
-86 -145 -102 -173 -17 -27 -54 -95 -82 -150 -28 -55 -58 -110 -65 -122 -8
-12 -12 -25 -8 -28 3 -3 100 40 214 95 115 56 243 116 284 132 41 16 97 40
125 53 116 53 451 155 655 198 96 21 253 44 355 52 211 17 564 -82 1065 -300
47 -20 121 -50 165 -66 44 -16 89 -33 100 -38 11 -5 45 -19 75 -31 30 -12 78
-32 105 -43 28 -11 82 -28 120 -37 120 -30 26 -22 -162 14 -98 19 -214 39
-258 45 -44 6 -147 24 -230 41 -266 52 -394 63 -635 57 -118 -3 -253 -13 -300
-21 -252 -44 -662 -140 -875 -206 -297 -92 -807 -210 -905 -210 -29 0 -315 93
-394 128 l-49 22 6 60 c15 140 174 605 208 605 6 0 17 9 23 20 6 11 19 31 29
44 9 13 18 33 18 45 1 15 3 13 9 -9 4 -16 8 -22 9 -13 1 10 13 19 33 23 35 8
64 22 86 43 8 7 22 10 33 7 11 -4 26 2 38 14 12 12 32 21 46 21 30 0 74 19 97
43 10 9 23 17 29 17 6 0 27 14 46 30 18 17 40 30 48 30 8 0 20 9 27 20 7 11
21 20 31 20 10 0 29 12 42 26 13 14 30 27 37 28 39 7 67 23 106 61 28 28 58
47 86 54 24 6 49 17 56 26 7 8 19 15 26 15 8 0 14 4 14 8 0 15 38 11 44 -4z
m-5553 -101 c-12 -20 -14 -14 -5 12 4 9 9 14 11 11 3 -2 0 -13 -6 -23z m3795
-249 c72 -37 51 -38 -24 -1 -38 19 -62 37 -49 37 3 0 36 -16 73 -36z m-246 15
c0 -5 12 -35 26 -65 30 -64 28 -94 -6 -111 -56 -26 -60 -23 -90 57 -36 93 -37
110 -7 110 12 0 29 5 37 10 20 13 40 13 40 -1z m838 -13 c-10 -7 -18 -22 -18
-32 0 -15 -2 -16 -9 -5 -5 7 -14 10 -20 7 -6 -4 -11 -5 -11 -3 0 6 62 47 70
47 3 -1 -3 -7 -12 -14z m-484 -55 c4 -5 -3 -7 -14 -4 -23 6 -26 13 -6 13 8 0
17 -4 20 -9z m76 -1 c0 -5 -2 -10 -4 -10 -3 0 -8 5 -11 10 -3 6 -1 10 4 10 6
0 11 -4 11 -10z m330 -88 c-23 -42 -44 -79 -46 -81 -2 -2 -62 22 -134 54 -72
32 -128 60 -126 63 3 2 18 0 34 -6 21 -7 33 -7 40 0 8 8 24 8 54 0 24 -6 58
-14 76 -17 17 -4 32 -11 32 -16 0 -5 5 -9 11 -9 5 0 7 4 4 10 -7 11 40 62 49
53 3 -4 6 2 6 13 0 15 2 16 9 5 7 -11 11 -8 16 10 5 13 10 18 12 11 3 -6 -14
-47 -37 -90z m-344 68 c8 0 14 -4 14 -10 0 -15 -24 -12 -46 6 -17 14 -17 15
-1 10 10 -3 25 -6 33 -6z m87 -14 c25 -19 21 -27 -8 -14 -14 6 -25 15 -25 20
0 12 12 9 33 -6z m-4597 -118 c4 -7 3 -8 -5 -4 -6 4 -18 2 -26 -4 -9 -8 -15
-8 -15 -2 0 9 15 19 32 21 4 1 10 -4 14 -11z m71 -20 c-3 -8 -6 -5 -6 6 -1 11
2 17 5 13 3 -3 4 -12 1 -19z m-157 -42 c0 -3 -7 -3 -16 1 -9 3 -20 0 -25 -8
-6 -10 -9 -5 -9 17 0 17 3 34 6 37 6 6 44 -34 44 -47z m230 44 c0 -5 -4 -10
-10 -10 -5 0 -10 5 -10 10 0 6 5 10 10 10 6 0 10 -4 10 -10z m-135 -21 c0 -18
-47 -19 -51 -1 -1 7 0 8 3 2 6 -12 43 -13 43 -1 0 5 -5 12 -10 14 -6 3 -5 4 2
3 7 -2 13 -9 13 -17z m164 -12 c-13 -28 -29 -27 -29 1 0 14 2 14 9 3 7 -11 10
-9 16 8 4 13 9 20 11 18 3 -2 -1 -16 -7 -30z m-52 -9 c-3 -8 -6 -5 -6 6 -1 11
2 17 5 13 3 -3 4 -12 1 -19z m-322 2 c3 -5 1 -10 -4 -10 -6 0 -11 5 -11 10 0
6 2 10 4 10 3 0 8 -4 11 -10z m465 -1 c12 -8 10 -9 -7 -4 -21 6 -33 -8 -15
-18 4 -2 1 -2 -5 -1 -7 2 -13 -4 -13 -12 0 -8 -4 -12 -10 -9 -6 4 -4 16 6 31
18 27 23 28 44 13z m4468 -19 c23 -11 42 -23 42 -26 0 -9 -60 -124 -66 -124
-11 0 -89 43 -96 53 -3 6 5 27 18 46 13 20 24 44 24 53 0 24 26 23 78 -2z
m-454 -45 c49 -74 47 -88 -16 -125 -29 -16 -56 -30 -60 -30 -6 0 -68 126 -68
139 0 6 90 69 101 70 3 1 23 -24 43 -54z m-4494 25 c0 -5 -2 -10 -4 -10 -3 0
-8 5 -11 10 -3 6 -1 10 4 10 6 0 11 -4 11 -10z m-22 -25 c-3 -3 -9 2 -12 12
-6 14 -5 15 5 6 7 -7 10 -15 7 -18z m549 -3 c-13 -15 -14 -21 -4 -32 10 -12 9
-12 -6 -1 -16 13 -16 15 -1 32 10 11 19 19 22 19 3 0 -2 -8 -11 -18z m-587
-35 c0 -6 -9 -2 -20 8 -11 10 -20 23 -20 28 0 6 9 2 20 -8 11 -10 20 -23 20
-28z m-90 -87 c8 -5 11 -10 5 -10 -5 0 -21 10 -35 21 -24 20 -5 13 30 -11z
m445 14 c74 -48 6 -161 -73 -120 -50 26 -52 94 -3 121 34 18 47 18 76 -1z
m4487 -79 c25 -14 52 -33 61 -43 15 -17 15 -21 -4 -59 -11 -23 -26 -44 -34
-47 -19 -7 -135 55 -135 73 0 18 48 101 59 101 5 0 29 -11 53 -25z m-4996 -2
c13 -17 13 -17 14 0 0 9 7 17 16 17 14 0 14 -1 0 -16 -9 -8 -14 -20 -11 -25
11 -17 -1 -9 -25 16 -13 14 -20 25 -15 25 4 0 14 -8 21 -17z m1181 1 c-3 -3
-12 -4 -19 -1 -8 3 -5 6 6 6 11 1 17 -2 13 -5z m-784 -148 c22 -44 37 -61 63
-72 19 -8 32 -19 29 -23 -3 -5 3 -7 13 -4 21 5 47 -21 37 -37 -4 -6 -14 -9
-22 -6 -8 3 -12 2 -9 -3 3 -5 -16 -18 -42 -29 -42 -18 -50 -26 -66 -71 -19
-54 -39 -77 -56 -66 -6 4 -23 33 -37 65 -23 54 -29 60 -75 77 -54 19 -74 36
-63 53 11 17 96 52 112 46 8 -3 12 -2 9 2 -8 13 53 134 67 130 6 -2 25 -30 40
-62z m-405 17 c-10 -2 -18 -11 -18 -18 0 -7 8 -16 18 -18 9 -3 -1 -5 -23 -5
-22 0 -32 2 -22 5 9 2 17 13 17 24 0 13 7 19 23 18 16 -1 18 -2 5 -6z m4870
-78 c29 -14 59 -25 67 -25 21 0 18 -29 -8 -75 -15 -26 -29 -39 -40 -37 -18 3
-137 71 -137 78 0 9 53 84 59 84 4 0 31 -11 59 -25z m-4878 -42 c-14 -3 -28
-10 -32 -17 -5 -7 -8 -5 -8 7 0 13 8 17 33 16 27 -2 28 -2 7 -6z m37 -69 c-3
-3 -12 -4 -19 -1 -8 3 -5 6 6 6 11 1 17 -2 13 -5z m11490 -26 c-3 -8 -6 -5 -6
6 -1 11 2 17 5 13 3 -3 4 -12 1 -19z m-6727 -52 c138 -91 83 -266 -84 -266
-156 0 -216 198 -84 281 45 27 113 21 168 -15z m-4740 16 c0 -4 -6 -14 -12
-21 -11 -11 -9 -12 10 -6 12 3 22 3 22 -2 0 -5 -14 -10 -32 -11 -31 -3 -31 -2
-14 17 13 15 14 20 4 24 -8 4 -7 6 5 6 9 1 17 -3 17 -7z m810 -63 c17 -13 18
-17 5 -10 -33 17 -51 31 -40 31 6 0 21 -10 35 -21z m-810 -4 c-7 -8 -17 -15
-22 -15 -6 0 -5 7 2 15 7 8 17 15 22 15 6 0 5 -7 -2 -15z m74 -80 c-4 -8 -3
-22 0 -31 6 -15 8 -15 26 1 16 15 18 21 7 34 -11 14 -10 14 6 2 17 -13 17 -15
-4 -37 -17 -18 -25 -21 -36 -13 -14 12 -18 41 -6 52 10 11 13 8 7 -8z m647
-17 c8 -15 8 -18 0 -14 -6 4 -16 16 -22 28 -8 15 -8 18 0 14 6 -4 16 -16 22
-28z m-47 -57 c-6 -6 -11 1 -18 29 l-7 25 15 -25 c8 -14 12 -27 10 -29z m-480
-7 c-18 -27 -23 -28 -44 -13 -12 8 -10 9 8 4 20 -6 32 8 15 18 -5 2 -2 2 5 1
6 -2 12 4 12 12 0 8 4 12 10 9 6 -4 4 -16 -6 -31z m453 20 c-3 -3 -12 -4 -19
-1 -8 3 -5 6 6 6 11 1 17 -2 13 -5z m-373 -46 c19 -36 19 -38 7 -38 -5 0 -12
12 -16 27 -5 21 -8 24 -16 12 -10 -16 -12 -8 -3 15 8 22 10 21 28 -16z m271
-26 c-5 -15 -9 -13 -25 8 -25 32 -25 39 0 33 12 -3 21 0 21 8 1 8 4 4 6 -9 3
-13 2 -31 -2 -40z m85 42 c0 -8 -5 -12 -10 -9 -6 4 -8 11 -5 16 9 14 15 11 15
-7z m-333 -16 c-3 -8 -6 -5 -6 6 -1 11 2 17 5 13 3 -3 4 -12 1 -19z m57 -22
c-3 -15 -8 -25 -11 -23 -2 3 -1 17 3 31 3 15 8 25 11 23 2 -3 1 -17 -3 -31z
m102 16 c1 -7 0 -8 -3 -2 -2 5 -14 10 -25 10 -15 0 -18 -4 -13 -17 5 -14 3
-15 -6 -6 -6 6 -8 16 -4 23 9 14 48 9 51 -8z m4 -31 c0 -15 -32 -23 -44 -11
-8 8 -6 9 5 5 10 -4 20 -2 24 4 8 13 15 14 15 2z"/>
<path d="M11082 9863 c-30 -6 -57 -61 -48 -97 4 -16 17 -31 33 -37 26 -10 25
-11 -44 -47 -85 -44 -135 -87 -163 -139 -21 -39 -27 -98 -11 -108 12 -7 41 22
41 41 0 20 28 74 38 74 5 0 19 -20 31 -46 27 -54 22 -85 -16 -104 -34 -15 -16
-25 31 -16 27 5 38 16 57 51 l23 44 -24 19 c-14 11 -34 36 -44 56 -17 32 -18
39 -5 51 21 21 99 37 99 20 0 -7 5 -15 12 -17 8 -3 9 -12 0 -36 -15 -43 -5
-41 14 3 7 19 14 59 14 89 0 51 2 54 34 70 19 9 44 16 55 16 25 0 36 20 27 53
-8 35 -98 70 -154 60z m91 -47 c8 -20 -76 -49 -92 -33 -15 15 -14 34 2 40 27
12 85 7 90 -7z"/>
<path d="M11293 9839 c-4 -13 -11 -18 -21 -14 -11 4 -12 2 -4 -8 15 -17 82
-10 89 10 3 8 0 19 -8 24 -24 15 -51 10 -56 -12z"/>
<path d="M11200 9711 c0 -5 15 -12 34 -15 45 -9 80 -37 120 -99 33 -51 96
-124 96 -112 0 3 -13 23 -29 43 -16 20 -32 48 -36 62 -11 38 -85 109 -125 120
-44 12 -60 13 -60 1z"/>
<path d="M11178 9616 c-49 -50 -78 -92 -78 -113 0 -16 -5 -40 -32 -141 -2 -7
13 -22 32 -33 l35 -22 -28 26 c-27 25 -28 28 -17 64 17 51 29 63 36 35 4 -12
10 -19 15 -17 4 3 13 -13 19 -36 17 -60 22 -42 11 37 -13 87 -2 140 36 170 15
13 33 23 39 24 13 0 39 -28 47 -53 4 -10 11 -16 16 -13 11 7 21 -17 21 -55 0
-16 5 -29 11 -29 6 0 8 -7 5 -16 -3 -9 0 -24 8 -35 12 -17 13 -12 9 43 -6 75
-30 126 -80 167 -48 39 -64 39 -105 -3z"/>
<path d="M11230 9519 c0 -5 5 -7 10 -4 6 3 10 8 10 11 0 2 -4 4 -10 4 -5 0
-10 -5 -10 -11z"/>
<path d="M11221 9467 c-1 -37 26 -113 37 -103 3 3 -1 12 -8 21 -7 8 -16 38
-20 67 -7 48 -8 49 -9 15z"/>
<path d="M11460 9477 c0 -2 14 -16 30 -32 17 -16 30 -24 30 -19 0 6 -13 20
-30 32 -16 13 -30 21 -30 19z"/>
<path d="M10859 9352 c14 -9 34 -18 45 -19 12 0 32 -4 46 -8 14 -3 7 2 -15 13
-22 10 -53 22 -70 25 l-30 7 24 -18z"/>
<path d="M10995 9310 c27 -12 43 -12 25 0 -8 5 -22 9 -30 9 -10 0 -8 -3 5 -9z"/>
<path d="M952 11215 c0 -16 2 -22 5 -12 2 9 2 23 0 30 -3 6 -5 -1 -5 -18z"/>
<path d="M1194 10650 c1 -9 12 -16 26 -17 21 -1 21 -1 3 3 -12 3 -24 11 -26
17 -2 7 -3 5 -3 -3z"/>
<path d="M1440 10619 c0 -11 5 -17 10 -14 6 3 10 13 10 21 0 8 -4 14 -10 14
-5 0 -10 -9 -10 -21z"/>
<path d="M1225 10560 c3 -5 8 -10 11 -10 2 0 4 5 4 10 0 6 -5 10 -11 10 -5 0
-7 -4 -4 -10z"/>
<path d="M1395 10560 c-11 -17 7 -60 24 -60 14 0 18 8 17 35 -1 26 -5 35 -18
35 -9 0 -19 -4 -23 -10z m22 -6 c-3 -4 -1 -16 5 -28 10 -19 10 -20 -5 -7 -19
16 -23 41 -5 41 6 0 8 -3 5 -6z"/>
<path d="M1320 10552 c0 -5 9 -17 20 -27 20 -18 20 -17 20 8 0 20 -5 27 -20
27 -11 0 -20 -4 -20 -8z"/>
<path d="M1431 10354 c0 -11 3 -14 6 -6 3 7 2 16 -1 19 -3 4 -6 -2 -5 -13z"/>
<path d="M1447 10331 c-4 -17 -3 -21 5 -13 5 5 8 16 6 23 -3 8 -7 3 -11 -10z"/>
<path d="M923 9322 l2 -287 444 -3 c245 -1 447 1 450 5 3 5 4 80 1 168 -3 88
-7 140 -9 115 -3 -42 -4 -43 -11 -15 l-8 30 -1 -33 c-1 -21 -5 -31 -12 -27 -6
4 -8 13 -5 21 3 8 1 24 -3 36 -9 23 -9 23 -16 -4 -4 -15 -13 -29 -21 -32 -13
-5 -12 -2 1 16 8 13 14 34 14 48 -2 22 -2 22 -6 3 -2 -12 -15 -33 -29 -48 -13
-14 -31 -39 -39 -54 -11 -23 -23 -30 -57 -35 -57 -8 -603 2 -605 12 -4 17 -10
366 -6 355 3 -8 24 -13 58 -13 54 0 86 14 37 16 -15 1 -62 4 -104 7 l-77 7 2
-288z"/>
<path d="M2598 11969 c-21 -11 -12 -49 11 -49 10 0 26 7 37 15 17 13 17 14 2
15 -9 0 -21 6 -25 14 -6 10 -13 12 -25 5z"/>
<path d="M2678 11923 c7 -3 16 -2 19 1 4 3 -2 6 -13 5 -11 0 -14 -3 -6 -6z"/>
<path d="M2720 11920 c0 -5 5 -10 11 -10 5 0 7 5 4 10 -3 6 -8 10 -11 10 -2 0
-4 -4 -4 -10z"/>
<path d="M2780 11885 c0 -8 5 -15 10 -15 6 0 10 7 10 15 0 8 -4 15 -10 15 -5
0 -10 -7 -10 -15z"/>
<path d="M2880 11831 c0 -6 16 -9 35 -8 49 4 52 13 5 15 -22 2 -40 -2 -40 -7z"/>
<path d="M2975 11814 c-15 -12 -17 -18 -9 -32 20 -31 74 -22 74 13 0 22 -44
34 -65 19z"/>
<path d="M3133 11691 c-30 -6 -31 -7 -18 -31 13 -22 21 -16 16 13 -3 17 33 5
54 -18 20 -21 25 -22 35 -10 10 12 9 15 -4 15 -9 0 -15 3 -15 8 5 33 -4 36
-68 23z"/>
<path d="M3248 11663 c7 -3 16 -2 19 1 4 3 -2 6 -13 5 -11 0 -14 -3 -6 -6z"/>
<path d="M3305 11650 c3 -5 8 -10 11 -10 2 0 4 5 4 10 0 6 -5 10 -11 10 -5 0
-7 -4 -4 -10z"/>
<path d="M3258 11643 c-10 -2 -18 -9 -18 -14 0 -6 7 -6 19 0 10 6 21 7 25 4 3
-3 6 -1 6 5 0 12 -3 13 -32 5z"/>
<path d="M2999 11631 c8 -5 12 -18 8 -30 -5 -22 16 -30 28 -11 4 6 12 4 21 -5
9 -8 20 -15 25 -15 6 0 3 7 -5 16 -19 18 -21 28 -4 18 8 -5 9 -2 5 10 -4 10
-7 20 -7 22 0 2 -19 4 -42 4 -29 0 -38 -3 -29 -9z"/>
<path d="M3095 11589 c7 -11 35 -12 35 -1 0 4 -9 8 -20 9 -11 1 -18 -2 -15 -8z"/>
<path d="M7105 11729 c-4 -6 -5 -12 -2 -15 2 -3 7 2 10 11 7 17 1 20 -8 4z"/>
<path d="M3906 11491 c-3 -5 0 -11 8 -14 8 -3 17 1 20 9 6 15 -19 20 -28 5z"/>
<path d="M3830 11465 c-45 -24 -45 -24 -13 -23 17 1 29 6 27 10 -3 4 7 10 21
14 14 3 25 10 25 15 0 13 -10 11 -60 -16z"/>
<path d="M3655 11320 c-3 -5 -1 -10 4 -10 6 0 11 5 11 10 0 6 -2 10 -4 10 -3
0 -8 -4 -11 -10z"/>
<path d="M4450 11041 c0 -29 -34 -103 -75 -161 -20 -28 -34 -54 -31 -57 5 -5
65 58 66 70 0 4 6 7 13 7 34 0 66 137 37 155 -5 3 -10 -3 -10 -14z"/>
<path d="M5398 10883 c7 -3 16 -2 19 1 4 3 -2 6 -13 5 -11 0 -14 -3 -6 -6z"/>
<path d="M4945 10850 c-17 -7 -15 -9 13 -9 17 -1 32 4 32 9 0 12 -17 12 -45 0z"/>
<path d="M4381 10758 c-59 -61 -60 -63 -41 -80 24 -23 41 -23 33 -1 -5 13 -2
15 11 10 11 -4 15 -3 10 4 -4 6 -2 14 3 18 10 6 63 96 63 105 0 18 -26 -1 -79
-56z"/>
<path d="M4742 10773 c-1 -7 -12 -13 -24 -14 -13 0 -17 -3 -10 -6 6 -2 12 -18
12 -34 0 -27 2 -29 40 -29 29 0 40 4 40 15 0 9 -9 15 -24 15 -20 0 -25 6 -29
33 -2 17 -5 26 -5 20z"/>
<path d="M5650 10750 c0 -5 7 -10 15 -10 8 0 15 5 15 10 0 6 -7 10 -15 10 -8
0 -15 -4 -15 -10z"/>
<path d="M4650 10701 c0 -11 6 -22 13 -25 10 -5 10 -7 0 -12 -23 -10 -13 -24
17 -24 30 0 40 14 18 24 -10 5 -10 7 0 12 6 3 12 14 12 25 0 14 -7 19 -30 19
-23 0 -30 -5 -30 -19z"/>
<path d="M4262 10660 c-12 -11 -25 -20 -29 -20 -4 0 -19 -10 -33 -21 l-25 -20
37 3 c20 2 34 0 32 -4 -9 -14 54 -9 68 5 7 8 19 12 26 9 18 -6 15 12 -9 42
-25 31 -38 33 -67 6z"/>
<path d="M5200 10641 c0 -18 -6 -21 -40 -21 l-40 0 0 -45 0 -45 80 0 c64 0 80
3 80 15 0 8 5 15 10 15 6 0 10 18 10 40 0 22 -4 40 -10 40 -5 0 -10 -18 -10
-40 0 -22 -4 -40 -10 -40 -5 0 -10 14 -10 30 0 24 -4 30 -20 30 -14 0 -20 6
-18 16 2 10 -3 19 -9 21 -8 3 -13 -4 -13 -16z"/>
<path d="M4526 10641 c-3 -5 1 -11 9 -15 8 -3 15 -12 15 -21 0 -15 -10 -19
-40 -16 -13 2 -13 1 0 -8 24 -17 39 -13 46 14 6 25 -19 64 -30 46z"/>
<path d="M6093 10643 c9 -2 25 -2 35 0 9 3 1 5 -18 5 -19 0 -27 -2 -17 -5z"/>
<path d="M4980 10630 c0 -5 9 -10 20 -10 16 0 20 -7 20 -30 0 -16 5 -30 10
-30 6 0 10 18 10 40 0 38 -2 40 -30 40 -16 0 -30 -4 -30 -10z"/>
<path d="M4502 10618 c5 -15 28 -23 28 -10 0 5 -7 13 -16 16 -10 4 -14 1 -12
-6z"/>
<path d="M4670 10610 c-13 -9 -13 -11 0 -20 25 -17 50 -12 50 10 0 22 -25 27
-50 10z"/>
<path d="M3941 10601 c-13 -8 -13 -12 -1 -26 25 -31 71 -48 94 -36 20 10 59
18 101 21 15 0 11 5 -14 16 -28 12 -36 12 -43 2 -6 -8 -7 -5 -3 10 6 21 4 22
-57 22 -35 0 -69 -4 -77 -9z"/>
<path d="M4540 10556 c0 -2 8 -10 18 -17 15 -13 16 -12 3 4 -13 16 -21 21 -21
13z"/>
<path d="M4575 10550 c3 -5 10 -10 16 -10 5 0 9 5 9 10 0 6 -7 10 -16 10 -8 0
-12 -4 -9 -10z"/>
<path d="M6240 10476 c0 -10 28 -13 41 -5 10 6 7 9 -13 9 -16 0 -28 -2 -28 -4z"/>
<path d="M6347 10474 c-4 -4 -7 -14 -7 -23 0 -11 3 -12 11 -4 6 6 10 16 7 23
-2 6 -7 8 -11 4z"/>
<path d="M6250 10430 c-16 -10 -13 -11 60 -15 35 -2 40 10 8 19 -32 8 -51 7
-68 -4z"/>
<path d="M4958 10388 c6 -6 18 -8 28 -6 14 3 12 5 -9 10 -19 3 -25 2 -19 -4z"/>
<path d="M4805 10380 c3 -5 10 -10 16 -10 5 0 9 5 9 10 0 6 -7 10 -16 10 -8 0
-12 -4 -9 -10z"/>
<path d="M5943 10373 c15 -2 39 -2 55 0 15 2 2 4 -28 4 -30 0 -43 -2 -27 -4z"/>
<path d="M6821 9462 c0 -6 8 -28 18 -48 15 -27 19 -51 16 -95 -3 -46 -1 -59
11 -59 11 0 14 18 15 83 0 45 2 93 5 106 4 23 3 24 -14 8 -24 -22 -39 -22 -45
1 -3 9 -5 11 -6 4z"/>
<path d="M6955 9425 c1 -34 -9 -47 -18 -22 -2 6 -8 8 -13 4 -5 -4 -3 -11 3
-15 23 -15 110 -100 149 -148 66 -79 151 -226 240 -416 65 -140 79 -178 66
-178 -9 0 -60 12 -112 26 -182 50 -166 49 -246 10 -39 -20 -74 -36 -77 -36 -2
0 -10 21 -16 48 -23 92 -85 163 -201 232 -94 55 -378 180 -410 180 -6 0 -10
-5 -10 -10 0 -13 88 -100 101 -100 5 0 9 -5 9 -11 0 -5 15 -16 34 -24 19 -8
37 -19 41 -24 3 -5 36 -30 73 -55 37 -24 77 -56 89 -70 l23 -26 -34 -14 c-19
-8 -55 -14 -81 -14 -78 0 -61 -9 32 -16 48 -3 91 -10 95 -14 5 -5 -17 -26 -49
-48 -168 -115 -274 -227 -290 -306 -7 -35 -14 -35 -36 1 -30 51 -144 148 -239
204 -214 125 -614 277 -592 225 8 -20 105 -82 246 -157 43 -23 104 -59 135
-81 32 -22 65 -45 73 -50 8 -5 44 -29 80 -53 36 -23 84 -52 107 -64 48 -25
100 -59 157 -103 21 -17 48 -30 59 -30 11 0 52 33 96 78 75 77 141 132 158
132 5 0 22 14 38 30 16 17 33 30 39 30 5 0 35 23 67 50 32 28 62 50 67 50 6 0
31 -23 55 -51 44 -50 46 -51 88 -46 24 3 68 12 97 21 30 8 77 16 105 17 29 1
57 5 62 9 13 9 161 -7 200 -22 17 -6 35 -18 42 -26 11 -13 14 -11 23 12 13 36
13 41 -5 56 -10 9 -15 32 -15 74 0 34 -4 66 -9 72 -12 13 -30 94 -25 109 4 9
-3 11 -21 8 -20 -4 -24 -2 -19 11 3 9 11 16 18 16 8 0 8 2 0 8 -15 10 -28 52
-16 52 15 0 2 43 -20 63 -17 16 -20 17 -34 3 -22 -22 -25 -20 -13 11 7 20 6
28 -3 35 -22 13 -42 4 -48 -22 -6 -25 -6 -25 -12 -2 -3 12 -2 22 3 22 5 0 9
10 9 21 0 19 -2 20 -16 8 -15 -12 -16 -11 -10 7 6 20 -16 78 -34 89 -5 3 -13
-3 -19 -12 -6 -10 -11 -13 -11 -7 0 5 5 15 12 22 10 10 8 16 -5 29 -16 16 -17
16 -17 0 0 -9 -2 -17 -4 -17 -15 0 -59 32 -82 61 -16 18 -34 38 -41 42 -7 4
-13 12 -13 18 0 5 -15 25 -34 43 -26 26 -32 40 -29 60 3 14 1 26 -4 26 -6 0
-9 -16 -8 -35z"/>
<path d="M7040 9411 c0 -5 9 -7 20 -4 11 3 20 7 20 9 0 2 -9 4 -20 4 -11 0
-20 -4 -20 -9z"/>
<path d="M7103 9324 c-15 -16 -16 -24 -4 -24 8 0 24 30 19 35 -2 2 -9 -3 -15
-11z"/>
<path d="M6550 9170 c0 -5 7 -10 15 -10 8 0 15 5 15 10 0 6 -7 10 -15 10 -8 0
-15 -4 -15 -10z"/>
<path d="M6490 9150 c-12 -8 -9 -10 13 -10 15 0 27 5 27 10 0 13 -20 13 -40 0z"/>
<path d="M7390 9110 c0 -11 5 -20 10 -20 6 0 10 9 10 20 0 11 -4 20 -10 20 -5
0 -10 -9 -10 -20z"/>
<path d="M4706 8831 c10 -18 26 -40 34 -49 8 -9 37 -44 65 -77 27 -33 65 -78
85 -101 19 -22 55 -65 80 -94 25 -30 64 -74 88 -98 23 -24 42 -46 42 -50 0 -4
17 -20 37 -37 20 -16 44 -38 54 -47 11 -10 24 -18 30 -18 6 0 9 -7 6 -14 -5
-11 5 -17 39 -22 26 -4 44 -12 44 -20 0 -20 17 -26 40 -14 17 9 20 8 20 -10 0
-23 15 -27 23 -6 5 13 -75 92 -135 134 -12 9 -29 23 -38 31 -9 9 -41 38 -71
65 -90 81 -248 236 -358 351 -57 60 -96 94 -85 76z"/>
<path d="M6245 8850 c3 -5 11 -10 16 -10 6 0 7 5 4 10 -3 6 -11 10 -16 10 -6
0 -7 -4 -4 -10z"/>
<path d="M6280 8835 c0 -7 91 -58 95 -53 3 3 -7 11 -23 19 -15 8 -33 20 -40
27 -13 12 -32 16 -32 7z"/>
<path d="M6428 8763 c7 -3 16 -2 19 1 4 3 -2 6 -13 5 -11 0 -14 -3 -6 -6z"/>
<path d="M7230 8570 c0 -5 7 -10 15 -10 8 0 15 5 15 10 0 6 -7 10 -15 10 -8 0
-15 -4 -15 -10z"/>
<path d="M5465 8120 c3 -5 11 -10 16 -10 6 0 7 5 4 10 -3 6 -11 10 -16 10 -6
0 -7 -4 -4 -10z"/>
<path d="M3145 7790 c-3 -5 -1 -10 4 -10 6 0 11 5 11 10 0 6 -2 10 -4 10 -3 0
-8 -4 -11 -10z"/>
<path d="M5123 7726 c0 -8 6 -12 15 -8 11 4 14 1 9 -11 -5 -13 2 -18 28 -23
21 -4 35 -12 35 -21 0 -7 6 -13 13 -12 27 3 36 -2 30 -17 -4 -12 0 -14 22 -11
22 3 38 -7 79 -46 28 -27 50 -53 49 -57 -1 -5 4 -14 12 -20 10 -8 15 -9 15 -2
0 6 15 -2 32 -19 18 -16 36 -30 40 -30 18 -3 24 -5 47 -18 13 -7 39 -13 57
-14 19 -1 29 -4 23 -8 -6 -3 11 -15 37 -25 27 -10 61 -27 76 -37 14 -11 31
-17 36 -13 6 3 13 2 17 -4 3 -5 0 -10 -7 -10 -7 -1 -2 -7 12 -14 14 -8 28 -12
32 -10 5 3 8 1 8 -5 0 -6 26 -23 58 -37 31 -15 60 -32 64 -38 4 -6 10 -7 14
-3 4 4 5 8 3 10 -153 112 -213 152 -394 258 -71 42 -145 86 -164 98 -19 12
-40 20 -48 17 -8 -3 -11 -1 -8 4 3 5 -7 15 -22 22 -15 7 -50 26 -78 43 -47 29
-132 75 -139 75 -1 0 -3 -6 -3 -14z"/>
<path d="M5153 7435 c15 -14 35 -25 43 -25 8 0 13 -4 9 -9 -8 -13 35 -41 62
-41 16 0 23 -6 23 -19 0 -14 5 -18 20 -14 14 4 20 0 20 -12 0 -13 6 -16 21
-12 12 3 18 3 15 0 -10 -10 25 -43 45 -43 11 0 24 -9 31 -20 7 -11 21 -20 31
-20 10 0 15 -4 12 -10 -3 -5 0 -10 8 -10 8 0 26 -9 41 -21 14 -11 30 -17 36
-14 6 3 13 -1 16 -9 3 -9 14 -16 23 -16 14 0 14 -2 1 -11 -12 -8 -9 -10 13 -6
18 3 27 0 27 -9 0 -8 6 -14 13 -14 7 0 23 -9 35 -20 12 -11 33 -20 48 -20 15
0 25 -3 21 -6 -9 -9 63 -44 91 -44 13 0 20 -4 17 -10 -8 -13 16 -13 35 1 13 9
12 10 -2 5 -10 -3 -18 -1 -18 4 0 6 -7 10 -15 10 -9 0 -28 9 -43 19 -62 43
-158 104 -196 123 -23 11 -43 24 -46 27 -8 12 -224 136 -229 133 -2 -2 -7 1
-10 6 -11 17 -75 46 -96 44 -15 -2 -17 -1 -6 6 9 7 10 12 2 16 -6 4 -11 2 -11
-3 0 -6 -5 -11 -11 -11 -6 0 -9 6 -6 14 4 9 -6 20 -28 30 -19 9 -37 21 -40 26
-3 6 -12 10 -18 10 -7 0 1 -12 16 -25z"/>
<path d="M3018 7383 c7 -3 16 -2 19 1 4 3 -2 6 -13 5 -11 0 -14 -3 -6 -6z"/>
<path d="M4991 7239 c13 -12 23 -25 22 -30 -2 -5 0 -9 5 -9 4 0 22 -12 39 -27
56 -50 88 -73 99 -73 6 0 19 -11 29 -24 12 -16 24 -22 39 -18 12 3 18 1 14 -3
-4 -4 14 -21 40 -37 26 -16 52 -35 57 -42 15 -19 101 -67 107 -60 4 3 9 -4 13
-15 3 -12 12 -21 18 -21 7 -1 26 -19 42 -41 51 -68 82 -95 125 -111 20 -6 30
-17 30 -30 0 -10 5 -16 10 -13 18 11 47 -4 59 -31 6 -14 16 -22 21 -19 6 3 10
0 10 -8 0 -15 27 -32 43 -28 5 1 6 -3 3 -8 -3 -5 1 -14 9 -21 8 -7 15 -16 15
-21 0 -14 101 -121 108 -114 4 4 -27 94 -38 110 -17 23 -7 121 10 110 4 -3 3
6 -3 20 -12 24 -277 207 -392 270 -27 15 -104 59 -170 99 -66 40 -154 92 -195
116 -41 23 -97 56 -123 71 -57 34 -80 38 -46 8z"/>
<path d="M4801 7112 c57 -45 159 -112 168 -112 6 0 11 -4 11 -10 0 -5 9 -10
21 -10 11 0 17 -4 14 -10 -3 -5 5 -12 19 -16 13 -3 27 -12 30 -21 3 -8 10 -12
15 -9 5 3 14 -1 21 -9 7 -8 19 -15 27 -15 8 0 11 -5 7 -11 -5 -9 1 -10 20 -5
15 4 25 3 22 -2 -7 -12 31 -42 54 -42 10 0 25 -8 32 -18 13 -18 31 -28 130
-71 26 -11 62 -31 80 -44 44 -33 78 -50 78 -39 0 5 -32 29 -71 53 -39 24 -83
53 -98 65 -14 12 -78 49 -141 84 -63 34 -147 82 -186 106 -40 24 -74 44 -78
44 -3 0 -14 7 -25 16 -20 18 -156 94 -167 94 -4 0 4 -8 17 -18z"/>
<path d="M5560 6655 c0 -2 10 -10 23 -16 20 -11 21 -11 8 4 -13 16 -31 23 -31
12z"/>
<path d="M1813 11005 c-9 -25 2 -27 22 -5 17 18 17 20 1 20 -9 0 -19 -7 -23
-15z"/>
<path d="M9148 10883 c7 -3 16 -2 19 1 4 3 -2 6 -13 5 -11 0 -14 -3 -6 -6z"/>
<path d="M9408 10883 c6 -2 18 -2 25 0 6 3 1 5 -13 5 -14 0 -19 -2 -12 -5z"/>
<path d="M9200 10852 c0 -5 7 -9 15 -9 8 0 12 4 9 9 -3 4 -9 8 -15 8 -5 0 -9
-4 -9 -8z"/>
<path d="M9200 10815 c0 -9 9 -15 21 -15 18 0 19 2 9 15 -7 8 -16 15 -21 15
-5 0 -9 -7 -9 -15z"/>
<path d="M9470 10816 c0 -10 9 -16 21 -16 24 0 21 23 -4 28 -10 2 -17 -3 -17
-12z"/>
<path d="M9936 10795 c13 -56 34 -58 52 -6 10 29 10 30 -12 21 -16 -6 -28 -5
-35 3 -10 9 -11 5 -5 -18z"/>
<path d="M10030 10773 c0 -7 -7 -13 -15 -13 -9 0 -12 -6 -8 -17 4 -10 2 -14
-5 -9 -6 3 -13 2 -17 -4 -4 -6 11 -8 40 -5 38 3 47 1 53 -15 6 -15 9 -16 20
-4 13 14 12 15 -8 18 -6 0 -21 15 -35 31 -13 17 -24 24 -25 18z m20 -23 c0 -5
-4 -10 -10 -10 -5 0 -10 5 -10 10 0 6 5 10 10 10 6 0 10 -4 10 -10z"/>
<path d="M10107 10686 c-4 -10 -1 -13 9 -9 7 3 14 9 14 14 0 14 -17 10 -23 -5z"/>
<path d="M10150 10683 c0 -7 4 -14 9 -18 5 -3 8 -16 5 -28 -4 -24 37 -92 49
-80 4 3 -2 18 -13 33 -10 15 -21 39 -24 55 -5 29 -26 59 -26 38z"/>
<path d="M3258 10883 c7 -3 16 -2 19 1 4 3 -2 6 -13 5 -11 0 -14 -3 -6 -6z"/>
<path d="M1785 10860 c-3 -5 1 -10 10 -10 9 0 13 5 10 10 -3 6 -8 10 -10 10
-2 0 -7 -4 -10 -10z"/>
<path d="M2845 10820 c3 -5 10 -10 16 -10 5 0 9 5 9 10 0 6 -7 10 -16 10 -8 0
-12 -4 -9 -10z"/>
<path d="M2880 10816 c0 -9 30 -14 35 -6 4 6 -3 10 -14 10 -12 0 -21 -2 -21
-4z"/>
<path d="M3675 10490 c-3 -5 -1 -10 4 -10 6 0 11 5 11 10 0 6 -2 10 -4 10 -3
0 -8 -4 -11 -10z"/>
<path d="M3745 10480 c-19 -8 -19 -9 2 -9 12 -1 25 4 28 9 7 12 -2 12 -30 0z"/>
<path d="M10284 10432 c2 -22 -1 -31 -9 -28 -20 7 -34 -8 -20 -21 10 -9 17 -9
31 1 15 12 16 18 6 47 l-11 34 3 -33z"/>
<path d="M10037 10359 c7 -7 15 -10 18 -7 3 3 -2 9 -12 12 -14 6 -15 5 -6 -5z"/>
<path d="M8145 10159 c-4 -6 1 -16 11 -24 20 -14 30 -4 20 20 -6 18 -22 20
-31 4z"/>
<path d="M2808 9892 c-27 -16 -37 -32 -20 -32 10 0 72 39 72 45 0 10 -26 4
-52 -13z"/>
<path d="M2971 9788 c0 -9 -4 -25 -7 -35 -5 -17 -5 -17 6 0 6 10 9 25 7 35 -4
15 -5 15 -6 0z"/>
<path d="M9665 8430 c-3 -5 3 -10 15 -10 12 0 18 5 15 10 -3 6 -10 10 -15 10
-5 0 -12 -4 -15 -10z"/>
<path d="M9480 8419 c0 -5 5 -7 10 -4 6 3 10 8 10 11 0 2 -4 4 -10 4 -5 0 -10
-5 -10 -11z"/>
<path d="M9355 8340 c3 -5 13 -10 21 -10 8 0 14 5 14 10 0 6 -9 10 -21 10 -11
0 -17 -4 -14 -10z"/>
<path d="M9418 8283 c7 -3 16 -2 19 1 4 3 -2 6 -13 5 -11 0 -14 -3 -6 -6z"/>
<path d="M9375 7970 c-4 -6 -5 -12 -4 -13 2 -1 14 -8 27 -15 22 -12 23 -11 20
10 -3 24 -32 36 -43 18z"/>
<path d="M8891 7085 c-1 -13 19 -35 31 -35 4 0 8 5 8 10 0 6 -6 10 -14 10 -8
0 -17 6 -19 13 -3 6 -6 7 -6 2z"/>
<path d="M8879 7023 c14 -27 18 -28 39 -6 16 16 16 16 -2 10 -10 -4 -25 -2
-34 5 -13 11 -14 10 -3 -9z"/>
<path d="M8969 7023 c-1 -5 -3 -21 -4 -38 -1 -16 -3 -36 -4 -42 0 -7 -12 -13
-26 -13 -14 0 -25 -4 -25 -10 0 -5 7 -10 15 -10 8 0 19 -9 25 -20 7 -12 16
-17 27 -13 11 4 14 3 9 -5 -4 -7 -2 -12 6 -12 7 0 22 -3 33 -6 11 -3 28 1 38
8 15 11 16 18 6 46 -6 17 -18 32 -26 32 -8 0 -23 20 -34 45 -18 40 -37 58 -40
38z"/>
<path d="M8888 6943 c6 -2 18 -2 25 0 6 3 1 5 -13 5 -14 0 -19 -2 -12 -5z"/>
<path d="M4260 6670 c0 -5 5 -10 11 -10 5 0 7 5 4 10 -3 6 -8 10 -11 10 -2 0
-4 -4 -4 -10z"/>
<path d="M5070 6060 c0 -5 7 -10 15 -10 8 0 15 5 15 10 0 6 -7 10 -15 10 -8 0
-15 -4 -15 -10z"/>
<path d="M1660 5886 c0 -2 7 -9 15 -16 12 -10 15 -10 15 4 0 9 -7 16 -15 16
-8 0 -15 -2 -15 -4z"/>
<path d="M1228 5183 c18 -2 45 -2 60 0 15 2 0 4 -33 4 -33 0 -45 -2 -27 -4z"/>
<path d="M1465 5180 c-3 -5 -1 -10 4 -10 6 0 11 5 11 10 0 6 -2 10 -4 10 -3 0
-8 -4 -11 -10z"/>
<path d="M1253 5153 c15 -2 39 -2 55 0 15 2 2 4 -28 4 -30 0 -43 -2 -27 -4z"/>
<path d="M1460 5152 c0 -5 -15 -7 -32 -6 -30 3 -31 3 -8 -5 17 -6 20 -9 8 -10
-10 -1 -18 -5 -18 -11 0 -18 29 -10 54 15 17 17 20 25 11 25 -8 0 -15 -4 -15
-8z"/>
<path d="M1238 5133 c6 -2 10 -9 6 -14 -8 -14 19 -10 40 6 19 14 17 15 -20 14
-21 0 -33 -3 -26 -6z"/>
<path d="M1466 5105 c-3 -9 0 -15 9 -15 8 0 15 7 15 15 0 8 -4 15 -9 15 -5 0
-11 -7 -15 -15z"/>
<path d="M8408 5112 c-21 -4 -20 -2 -19 -182 3 -242 26 -570 40 -570 5 0 11
24 15 53 15 130 14 127 60 127 22 -1 70 -6 106 -13 36 -7 89 -11 118 -9 47 4
55 7 80 42 32 45 126 96 252 136 111 35 130 44 161 76 l26 27 157 -5 c95 -2
155 0 152 5 -4 6 33 8 91 6 65 -3 86 -1 63 4 -30 7 -31 9 -10 10 41 4 16 9
-215 45 -140 21 -237 41 -265 55 -25 11 -72 27 -104 36 -65 16 -80 12 -126
-37 -33 -36 -170 -264 -195 -324 -12 -30 -25 -57 -28 -60 -7 -7 -95 19 -135
40 -23 12 -30 21 -25 34 6 15 5 16 -12 2 -17 -14 -18 -12 -11 60 4 41 10 86
13 99 4 15 2 22 -4 18 -6 -4 -14 -39 -18 -79 -13 -132 -17 -138 -64 -113 -31
15 -31 17 -25 65 4 33 3 55 -6 64 -6 8 -11 30 -9 48 5 76 -19 278 -40 329 -3
8 -14 13 -23 11z m1219 -288 c-3 -3 -12 -4 -19 -1 -8 3 -5 6 6 6 11 1 17 -2
13 -5z"/>
<path d="M1425 5080 c-4 -6 3 -10 14 -10 25 0 27 6 6 13 -8 4 -17 2 -20 -3z"/>
<path d="M8601 4854 c0 -11 3 -14 6 -6 3 7 2 16 -1 19 -3 4 -6 -2 -5 -13z"/>
<path d="M4891 4813 c-10 -26 -10 -27 4 -9 8 11 15 23 15 28 0 15 -7 8 -19
-19z"/>
<path d="M3260 4799 c0 -5 5 -7 10 -4 6 3 10 8 10 11 0 2 -4 4 -10 4 -5 0 -10
-5 -10 -11z"/>
<path d="M3298 4803 c6 -2 18 -2 25 0 6 3 1 5 -13 5 -14 0 -19 -2 -12 -5z"/>
<path d="M3218 4793 c6 -2 18 -2 25 0 6 3 1 5 -13 5 -14 0 -19 -2 -12 -5z"/>
<path d="M4871 4764 c0 -11 3 -14 6 -6 3 7 2 16 -1 19 -3 4 -6 -2 -5 -13z"/>
<path d="M4836 4673 c-9 -26 -12 -43 -7 -38 11 13 32 77 27 82 -2 2 -11 -17
-20 -44z"/>
<path d="M2455 4684 c-66 -13 -121 -23 -122 -24 -2 0 -3 -4 -3 -10 0 -28 225
15 265 51 13 12 -2 11 -140 -17z"/>
<path d="M2280 4640 c20 -13 33 -13 25 0 -3 6 -14 10 -23 10 -15 0 -15 -2 -2
-10z"/>
<path d="M4793 4558 c-23 -48 -35 -87 -31 -105 2 -11 13 6 27 44 23 61 26 107
4 61z"/>
<path d="M4745 4420 c3 -5 8 -10 11 -10 2 0 4 5 4 10 0 6 -5 10 -11 10 -5 0
-7 -4 -4 -10z"/>
<path d="M6090 4261 c0 -6 3 -11 8 -12 4 0 17 -2 29 -3 19 -2 21 0 11 12 -9
10 -13 11 -16 3 -3 -9 -7 -9 -18 0 -10 8 -14 8 -14 0z"/>
<path d="M6749 4193 c-13 -17 -13 -17 6 -3 11 8 22 16 24 17 2 2 0 3 -6 3 -6
0 -17 -8 -24 -17z"/>
<path d="M8570 4001 c-400 -29 -924 -164 -1316 -337 -149 -66 -332 -169 -321
-181 3 -2 22 7 44 20 94 60 362 177 403 177 10 0 20 5 22 11 2 6 25 11 52 11
32 1 50 6 53 15 4 11 8 12 13 3 5 -9 13 -9 27 -1 11 5 24 7 28 3 3 -4 16 -8
28 -9 12 0 33 -5 46 -9 20 -6 23 -4 18 9 -4 10 -2 17 3 17 6 0 10 -6 10 -12 0
-7 5 -5 11 5 7 11 17 16 29 12 10 -3 21 -1 25 5 3 5 22 10 41 10 24 0 33 4 28
12 -5 8 -2 9 10 5 9 -4 36 0 59 8 23 8 58 16 77 20 59 9 120 29 120 38 0 5 18
7 40 3 24 -4 40 -2 40 4 0 5 18 13 40 16 22 4 40 11 40 16 0 5 5 6 12 2 21
-13 61 -18 150 -18 76 0 90 2 103 19 8 11 15 14 15 8 0 -17 97 -18 102 -1 4
12 49 18 131 17 26 0 47 5 47 11 0 5 5 10 10 10 6 0 10 -7 10 -15 0 -10 10
-15 31 -15 27 0 30 2 19 15 -11 13 -8 15 20 15 24 0 31 -4 27 -14 -5 -12 8
-14 73 -13 46 1 72 5 62 10 -9 4 9 5 42 3 69 -6 67 1 -6 19 -52 14 -52 14 -8
8 25 -3 61 -8 80 -10 19 -3 54 -5 78 -4 31 1 41 -2 36 -10 -4 -8 -3 -9 4 -5 6
4 60 -1 119 -10 60 -9 137 -20 173 -24 36 -5 90 -14 120 -20 30 -6 73 -13 95
-16 88 -9 126 -15 280 -44 88 -16 243 -42 345 -56 102 -14 257 -39 344 -55 87
-16 238 -40 335 -54 198 -28 331 -51 376 -64 17 -5 55 -12 85 -16 30 -4 108
-15 174 -26 65 -11 123 -18 130 -16 42 16 -251 78 -714 151 -238 38 -670 111
-1160 196 -789 137 -1115 172 -1410 151z m410 -81 c0 -5 -4 -10 -10 -10 -5 0
-10 5 -10 10 0 6 5 10 10 10 6 0 10 -4 10 -10z"/>
<path d="M7490 3603 c-283 -107 -580 -254 -665 -328 -38 -33 -30 -30 76 34
115 68 365 188 514 245 66 26 134 53 150 61 52 24 -3 16 -75 -12z"/>
<path d="M6847 3430 c-74 -56 -200 -171 -194 -177 2 -2 24 16 49 39 25 24 66
59 93 78 26 19 55 43 64 53 8 9 19 17 24 17 11 0 41 30 35 36 -3 2 -35 -19
-71 -46z"/>
<path d="M6170 3280 c0 -5 5 -10 11 -10 5 0 7 5 4 10 -3 6 -8 10 -11 10 -2 0
-4 -4 -4 -10z"/>
<path d="M6206 3077 c3 -10 9 -15 12 -12 3 3 0 11 -7 18 -10 9 -11 8 -5 -6z"/>
<path d="M6413 2913 c9 -2 23 -2 30 0 6 3 -1 5 -18 5 -16 0 -22 -2 -12 -5z"/>
<path d="M5865 5740 c-3 -5 -1 -10 4 -10 6 0 11 5 11 10 0 6 -2 10 -4 10 -3 0
-8 -4 -11 -10z"/>
<path d="M5790 5627 c0 -43 24 -67 39 -40 7 13 6 27 -2 43 -19 38 -37 37 -37
-3z"/>
<path d="M11390 4999 c0 -5 5 -7 10 -4 6 3 10 8 10 11 0 2 -4 4 -10 4 -5 0
-10 -5 -10 -11z"/>
<path d="M6458 2493 c7 -3 16 -2 19 1 4 3 -2 6 -13 5 -11 0 -14 -3 -6 -6z"/>
<path d="M6608 2473 c7 -3 16 -2 19 1 4 3 -2 6 -13 5 -11 0 -14 -3 -6 -6z"/>
<path d="M6598 2453 c6 -2 18 -2 25 0 6 3 1 5 -13 5 -14 0 -19 -2 -12 -5z"/>
<path d="M2618 2553 c7 -3 16 -2 19 1 4 3 -2 6 -13 5 -11 0 -14 -3 -6 -6z"/>
<path d="M5895 1670 c-8 -13 5 -13 25 0 13 8 13 10 -2 10 -9 0 -20 -4 -23 -10z"/>
<path d="M5718 1653 c7 -3 16 -2 19 1 4 3 -2 6 -13 5 -11 0 -14 -3 -6 -6z"/>
<path d="M940 1540 c0 -5 5 -10 11 -10 5 0 7 5 4 10 -3 6 -8 10 -11 10 -2 0
-4 -4 -4 -10z"/>
<path d="M1156 1273 c-6 -14 -5 -15 5 -6 7 7 10 15 7 18 -3 3 -9 -2 -12 -12z"/>
<path d="M1205 620 c3 -5 8 -10 11 -10 2 0 4 5 4 10 0 6 -5 10 -11 10 -5 0 -7
-4 -4 -10z"/>
</g>
</svg>
